<?xml version="1.0" encoding="UTF-8" standalone="no"?>
<svg
   xmlns:dc="http://purl.org/dc/elements/1.1/"
   xmlns:cc="http://creativecommons.org/ns#"
   xmlns:rdf="http://www.w3.org/1999/02/22-rdf-syntax-ns#"
   xmlns:svg="http://www.w3.org/2000/svg"
   xmlns="http://www.w3.org/2000/svg"
   id="svg8"
   version="1.1"
   viewBox="0 0 20.372916 7.9375002"
   height="30"
   width="77">
  <defs
     id="defs2">
    <style
       id="style3972">.\39 975c1e9-694f-40b9-8e2c-9304f81cd875{fill:#82bc00;}.\32 7b756e1-8c69-41c9-bf91-d6b707e5339b{fill:#1e1e1f;}.\35 dcdaab3-c922-435f-91aa-20bb2b3cdfd8{fill:#fefefe;}.\35 2201aa3-6e1f-4464-9549-72f4ae7f3cda{fill:#487a2d;}.b37affa4-09aa-4124-8d48-32fead986828{fill:#f47d20;}.\32 d2120c9-2caa-486b-810f-98e64d37d26c{fill:#85be42;}</style>
  </defs>
  <metadata
     id="metadata5">
    <rdf:RDF>
      <cc:Work
         rdf:about="">
        <dc:format>image/svg+xml</dc:format>
        <dc:type
           rdf:resource="http://purl.org/dc/dcmitype/StillImage" />
        <dc:title></dc:title>
      </cc:Work>
    </rdf:RDF>
  </metadata>
  <g
     transform="translate(0,-289.06249)"
     id="layer1">
    <g
       id="ce46cb8d-ace0-4152-b81d-a852e437036e"
       data-name="Layer 2"
       transform="matrix(0.04141973,0,0,0.04141973,-0.57492933,287.66181)">
      <g
         id="5364e115-2e58-480c-96b1-c25262384966"
         data-name="g7130">
        <path
           id="12a81be7-2ef6-4516-98fe-fb28594f2246"
           data-name="path7134"
           class="52201aa3-6e1f-4464-9549-72f4ae7f3cda"
           d="m 309.42,50.12 v 0 a 4.3,4.3 0 0 0 -3.83,-2.36 h -3.5 A 2.37,2.37 0 0 0 300,51.2 l 5.85,11.67 5.31,9.13 a 57.67,57.67 0 0 0 16.66,18 l 34.79,24.34 a 43.43,43.43 0 0 1 11.83,12.41 L 385.79,145 387.45,130.3 378.3,114 a 33.94,33.94 0 0 0 -10.75,-11.62 l -37.67,-25.2 -3.65,-3.33 A 65.78,65.78 0 0 1 311.85,54.94 l -2.44,-4.82"
           style="fill:#487a2d" />
        <path
           id="b6c77df3-27a9-42dd-8c47-34ffeff62e00"
           data-name="path7136"
           class="52201aa3-6e1f-4464-9549-72f4ae7f3cda"
           d="m 330,186.48 v 0 L 317.47,175 l -7.55,-18.49 0.27,-7.09 -3.67,12.67 2,7.75 a 36.22,36.22 0 0 0 15.35,21.41 l 32.92,21.42 a 19.94,19.94 0 0 0 10.87,3.23 H 369 a 3.33,3.33 0 0 0 1.65,-6.23 L 330,186.48"
           style="fill:#487a2d" />
        <path
           id="0dfac791-8d38-4310-8664-bb0d6ad28b58"
           data-name="path7138"
           class="52201aa3-6e1f-4464-9549-72f4ae7f3cda"
           d="m 385,72.62 v 0 l 0.14,0.27 a 5.15,5.15 0 0 1 0.38,3.93 l -1.43,4.63 A 1.79,1.79 0 0 1 381,82 L 362.2,57.83 a 3.82,3.82 0 0 1 3.21,-6.15 l 5.85,0.3 a 5.11,5.11 0 0 1 4.25,2.71 L 385,72.62"
           style="fill:#487a2d" />
        <path
           id="cf8f7e5b-8e26-4687-ae33-f4c7740a440a"
           data-name="path7140"
           class="b37affa4-09aa-4124-8d48-32fead986828"
           d="m 374.78,60.11 v 0 A 2.65,2.65 0 0 1 372.17,64 l -27.55,-2.84 a 2.59,2.59 0 0 0 -0.54,0 L 313.2,64.3 a 2.65,2.65 0 0 1 -2.66,-1.49 L 307.29,56 a 2.65,2.65 0 0 1 2.9,-3.74 l 33.11,6.47 a 2.66,2.66 0 0 0 0.8,0 l 25.83,-2.86 a 3.68,3.68 0 0 1 3.66,1.93 l 1.21,2.27"
           style="fill:#f47d20" />
        <path
           id="0e8c4f5e-9741-4fc1-b2b7-5bb6642d348b"
           data-name="path7142"
           class="b37affa4-09aa-4124-8d48-32fead986828"
           d="m 383.22,78.32 v 0 a 2.64,2.64 0 0 1 0.37,1.13 v 0 a 2.65,2.65 0 0 1 -2.91,2.87 l -22.92,-2.38 a 2.66,2.66 0 0 0 -0.49,0 L 328,82.35 a 2.64,2.64 0 0 1 -2,-0.69 l -2.58,-2.36 a 2.65,2.65 0 0 1 2,-4.59 l 31.2,2.77 a 2.63,2.63 0 0 0 0.82,-0.06 L 376.69,73 a 4.17,4.17 0 0 1 4.49,1.91 l 2,3.37"
           style="fill:#f47d20" />
        <path
           id="1882ad10-34de-4b7a-970f-24ca61189128"
           data-name="path7144"
           class="b37affa4-09aa-4124-8d48-32fead986828"
           d="m 347.72,93.81 15.79,2.64 a 2.65,2.65 0 0 0 1.34,-0.12 L 371.33,94 a 2.65,2.65 0 0 1 3.4,3.36 l -0.13,0.36 a 2.65,2.65 0 0 1 -2.71,1.77 l -7.14,-0.56 a 2.64,2.64 0 0 0 -1.09,0.14 l -8.39,3 a 2.65,2.65 0 0 1 -2.77,-0.64 l -5.71,-5.79 a 1.05,1.05 0 0 1 0.92,-1.77"
           style="fill:#f47d20" />
        <path
           id="5411c702-d27e-458c-a85e-c3d0237d467b"
           data-name="path7146"
           class="b37affa4-09aa-4124-8d48-32fead986828"
           d="m 313.75,174.29 v 0 a 2.65,2.65 0 0 0 3,1.78 l 16.4,-3.17 a 2.66,2.66 0 0 1 0.65,0 l 12.16,0.66 a 2.65,2.65 0 0 0 2.5,-1.45 l 0.43,-0.85 a 2.65,2.65 0 0 0 -3,-3.77 l -11.91,3 a 2.64,2.64 0 0 1 -1,0 L 314,167.64 a 1.62,1.62 0 0 0 -1.78,2.11 l 1.48,4.54"
           style="fill:#f47d20" />
        <path
           id="23308742-af0f-4416-af31-7db7101c2c73"
           data-name="path7148"
           class="b37affa4-09aa-4124-8d48-32fead986828"
           d="m 369.51,114.8 -4.11,2 a 2.64,2.64 0 0 1 -1.19,0.27 l -16.81,-0.23 a 2.65,2.65 0 0 0 -2.61,2 l -0.9,3.84 a 2.65,2.65 0 0 0 3.45,3.11 l 17.56,-6.15 a 2.65,2.65 0 0 1 1.38,-0.1 l 4.29,0.83 a 2.65,2.65 0 0 0 2.74,-4 l -0.38,-0.6 a 2.65,2.65 0 0 0 -3.39,-1"
           style="fill:#f47d20" />
        <path
           id="2192e353-e7de-4f2d-aab9-6b158f8576e5"
           data-name="path7150"
           class="b37affa4-09aa-4124-8d48-32fead986828"
           d="m 383.51,133.89 v 0 a 2.65,2.65 0 0 1 -2.58,3.56 l -21,-0.73 a 2.62,2.62 0 0 0 -0.6,0 l -34.17,6.71 a 2.65,2.65 0 0 1 -2.72,-4.05 l 4.5,-6.84 a 2.65,2.65 0 0 1 2.5,-1.18 l 29.8,3.28 a 2.64,2.64 0 0 0 0.78,0 l 20,-3.77 a 2.69,2.69 0 0 1 3,1.71 l 0.47,1.28"
           style="fill:#f47d20" />
        <path
           id="a63545e8-570b-4a56-8135-e7cbeae5e387"
           data-name="path7152"
           class="b37affa4-09aa-4124-8d48-32fead986828"
           d="m 355.38,203.94 v 0 a 2.65,2.65 0 0 1 -1.75,4.81 l -18.17,-1.3 h -0.64 L 315,210.27 a 2.65,2.65 0 0 1 -2.62,-4 l 2.33,-3.78 a 2.65,2.65 0 0 1 2.93,-1.17 l 16.89,4.45 a 2.66,2.66 0 0 0 1.3,0 L 352.16,203 a 3.7,3.7 0 0 1 2.74,0.61 l 0.48,0.33"
           style="fill:#f47d20" />
        <path
           id="5fdcc91d-b42c-4fed-84c2-973018fd971d"
           data-name="path7154"
           class="b37affa4-09aa-4124-8d48-32fead986828"
           d="m 374.89,146.64 -5.09,10.18 a 2.65,2.65 0 0 1 -2.65,1.45 l -27.7,-2.94 a 2.63,2.63 0 0 0 -0.7,0 l -27,4.32 a 2.65,2.65 0 0 1 -2.71,-3.94 l 1.6,-2.75 a 2.65,2.65 0 0 1 2.46,-1.31 l 25.64,1.64 a 2.61,2.61 0 0 0 0.65,0 l 35.46,-6.61 v 0"
           style="fill:#f47d20" />
        <path
           id="3bcdc3b9-5472-4826-bbcf-cf605617b0ed"
           data-name="path7156"
           class="2d2120c9-2caa-486b-810f-98e64d37d26c"
           d="m 380.08,84.15 5.72,-8.72 -0.31,13.07 a 6.55,6.55 0 0 1 -1.37,3.85 l -5.94,7.65 a 72,72 0 0 1 -15.26,14.66 l -35.25,25 a 35.9,35.9 0 0 0 -6,5.38 c 0,0 -12.15,12.33 -15.14,17 0.47,-2.41 0.6,-3.72 0.6,-3.72 A 44.21,44.21 0 0 1 316,138.13 l 2.93,-3.74 a 37.29,37.29 0 0 1 8.14,-7.67 l 34.57,-23.92 a 54.12,54.12 0 0 0 7.64,-6.41 l 5,-5.09 a 45.57,45.57 0 0 0 5.78,-7.16 v 0"
           style="fill:#85be42" />
        <path
           id="343eecb8-d434-4762-8a22-a48c6e05d85b"
           data-name="path7158"
           class="2d2120c9-2caa-486b-810f-98e64d37d26c"
           d="m 357,159.42 -23.2,16.05 a 70.15,70.15 0 0 0 -18.9,19.44 L 301.78,215 a 1.35,1.35 0 0 0 1.13,2.08 H 309 a 4.29,4.29 0 0 0 3.7,-2.08 l 3.16,-5.29 a 78.86,78.86 0 0 1 22,-23.86 l 23.92,-17 a 135,135 0 0 0 18.26,-15.6 l 3.92,-4 a 10.58,10.58 0 0 0 3,-7 l 0.45,-12 v 0.06 a 31.46,31.46 0 0 1 -6.83,10 l -1,1 a 26.17,26.17 0 0 1 -2.33,2.07 L 357,159.42"
           style="fill:#85be42" />
        <path
           id="c01c697a-70b0-4fde-9343-7f0d30b6f7c7"
           data-name="path7160"
           class="9975c1e9-694f-40b9-8e2c-9304f81cd875"
           d="M 17,40.66 V 219.89 H 55.53 V 116.34 L 106,219.89 h 45.79 V 40.66 H 113.25 V 144 L 62.44,40.66 Z"
           style="fill:#82bc00" />
        <path
           id="bb6d92d3-d879-4e98-ba09-2e4ffcdcd4db"
           data-name="path7162"
           class="9975c1e9-694f-40b9-8e2c-9304f81cd875"
           d="m 208.83,141.8 v 46.71 h 24.76 q 15.69,0 23.17,-6 7.48,-6 7.48,-18.39 0,-22.31 -31.87,-22.31 h -23.54 z m 0,-30.16 h 22.07 q 15.45,0 22.37,-4.78 6.92,-4.78 6.92,-15.86 0,-10.3 -7.54,-14.77 -7.54,-4.47 -23.84,-4.43 h -20 v 39.84 z m -38,-71 h 55.77 q 38.13,0 55.35,10.85 17.22,10.85 17.23,34.51 0,16.06 -7.54,26.36 a 30.11,30.11 0 0 1 -20,12.38 V 126 q 17,3.8 24.58,14.22 7.58,10.42 7.54,27.71 0,24.52 -17.71,38.25 -17.71,13.73 -48.12,13.73 H 170.82 V 40.66"
           style="fill:#82bc00" />
        <path
           id="2cf97cb2-3bb2-4968-b3a9-5e1615ca3653"
           data-name="path7164"
           class="9975c1e9-694f-40b9-8e2c-9304f81cd875"
           d="m 504.21,169 q 0,23.66 -17.47,37.27 -17.47,13.61 -48.61,13.62 -28.69,0 -50.75,-10.51 V 175 q 18.14,7.89 30.71,11.11 a 93.07,93.07 0 0 0 23,3.23 q 12.5,0 19.18,-4.66 6.68,-4.66 6.68,-13.86 a 15,15 0 0 0 -2.94,-9.14 32.66,32.66 0 0 0 -8.64,-7.71 q -5.7,-3.7 -23.23,-11.83 -16.43,-7.53 -24.64,-14.46 a 54.45,54.45 0 0 1 -13.12,-16.13 q -4.9,-9.2 -4.9,-21.5 0,-23.18 16.12,-36.44 16.12,-13.26 44.56,-13.26 c 9.32,0 14.77,1.27 23.17,3.64 9.35,2.64 14.14,3.72 23.15,7.18 L 497,86.29 A 99.85,99.85 0 0 0 468.79,72.9 c -6.5,-2 -13.78,-1.75 -19.82,-1.75 q -10.79,0 -16.55,4.9 a 16,16 0 0 0 -5.76,12.78 15.5,15.5 0 0 0 2.33,8.54 25.28,25.28 0 0 0 7.42,7 q 5.09,3.4 24.09,12.24 25.13,11.71 34.45,23.48 9.32,11.77 9.26,28.91"
           style="fill:#82bc00" />
      </g>
    </g>
  </g>
</svg>
