<svg xmlns="http://www.w3.org/2000/svg" viewBox="0 0 1836 538"><defs><style>.cls-1{font-size:254px;font-family:BaskOldFace, Baskerville Old Face;letter-spacing:-0.06em;}.cls-2{letter-spacing:-0.1em;}.cls-3{letter-spacing:-0.06em;}.cls-4{letter-spacing:-0.05em;}</style></defs><title>scilifelab_and_nbis_together</title><g id="Layer_1_Image" data-name="Layer 1 Image"><path d="M1333,112c3.2,2.1,7.1.4,10.7,2.7-4.9,5.1-10,10.3-15,15.5-1.4,1.5-2.8.4-4.1,0-6.6-1.9-13.2-3.5-20.1-2.9-13.5,1.2-22.1,9-27.5,20.9-4.6,10.1-6.3,21-7.6,31.9-1.2,9.6-2,19.2-3.2,28.8-.5,4.2.2,5.8,5,5.7,15.1-.2,30.3.1,45.5.3,1.8,0,3.5.2,6,.4-5.5,6.5-8.1,13.6-10.1,21-.9,3.5,0,4.3,3.5,4.3,15.3-.2,30.6-.2,46-.4,1.3,0,2.9.6,3.3-1.8,2.2-13.7-11.1-29.9-25.1-30.1-1,0-2,0-3,.1s-2.1.1-2.2-1.3c-.1-1.2.7-1.6,1.8-1.9,21.9-6.2,48.9,15.3,47.5,37.7-.2,3.8-2.7,2.7-4.6,2.7-21,.1-42,.3-63-.1-5.2-.1-6.5,1.7-6.7,6.4-.5,16.1,3.4,30.8,14.1,43,10.9,12.4,27.5,16.1,42.8,10.1,7.7-3,12.9-8.6,16-16.2.5-1.2.6-3.5,2.7-2.7,2.3.8.7,2.6.3,3.8a33.74,33.74,0,0,1-17.6,21.3c-19.5,10-48.6,5.7-64.4-9.4-17.3-16.6-21.5-45.4-9.8-68.4.6-1.2,1.2-2.3,1.8-3.4-.8-1.7-2.1-1.1-3.2-1.1-8.3-.1-16.7.1-25-.1-2.9-.1-4,.7-4.3,3.7-1.8,16.9-3.6,33.8-5.7,50.6-2.9,24.3-2.7,48.9-8,72.9-5,22.6-14.7,42.7-33.6,57.4a68.54,68.54,0,0,1-31.2,13.7c-.8.1-1.7,0-2.1,1h-17c-2.5-.8-5-1.6-8.3-2.7,5.3-4.8,10.2-9.3,15.2-13.8,1.5-1.4,3.1-.2,4.7.2,6.5,1.7,13,3,19.7,2,13-1.9,21.5-9.8,27.4-21,5.5-10.5,7.8-21.9,9-33.6,4.2-41.7,8.2-83.5,12.4-125.2.4-4.1-.7-5.1-4.6-4.9-5.3.3-10.6.1-17.3.1,5.1-5.3,9.3-9.8,13.6-14.2,1.3-1.3,3.2-.8,4.8-.6,4.4.6,6-1,6.3-5.6a136.78,136.78,0,0,1,8-39c7.2-20.4,18.4-37.6,38-48.2a75.26,75.26,0,0,1,27-8.4c1-.1,2.4.5,3-1.1C1327.7,112,1330.3,112,1333,112Z"/><path d="M1738,272c-1.7.6-1.2,2.3-1.4,3.4-7.3,28.5-31.3,44.4-60.6,40.3a75.7,75.7,0,0,1-17.6-5.1c-7.5-3.2-11.1-1.9-15.5,5-.2.3-.5.5-.6.8-.7,2.7-2.7,3-5,2.7-3-.4-1.7-2.8-1.7-4.3q-.15-70.95-.1-142a55,55,0,0,0-1.4-13.4c-2-7.7-6.4-11.5-14.3-12.5-1.3-.2-3.3.8-3.6-1.6-.3-2.7,1.9-2.1,3.5-2.4,10.4-1.4,20.8-2.6,31.1-4.4,3.7-.6,4.1.5,4.1,3.7-.1,24.2,0,48.3,0,72.5v5.7c14.2-16.2,31.4-18,49.3-12.1,18.5,6.1,29.5,19.7,32.9,39.1.1.7.2,1.3.9,1.5C1738,256.7,1738,264.3,1738,272Zm-83.1-12.4a130.62,130.62,0,0,0,3.3,34.7c3.3,13.8,15.2,21.1,29.1,18,9.1-2,15.3-7.7,19.9-15.4,9.6-16,10.6-33.3,7.2-51.1-2.4-12.4-7.7-23.4-18-31.2-11.5-8.7-25.8-6.3-34.2,5.4a31,31,0,0,0-5.1,12.3C1655,241.3,1654.7,250.5,1654.9,259.6Z"/><path d="M763,287.3V264.8c0-1.1-.9-2.9,1.2-3.2s2.4,1.2,2.8,2.8c2.7,9.4,5.8,18.8,11,27.1,8.8,13.9,20.4,23.4,38,21.8,19-1.7,32-18.2,29.6-37.3-1.7-13.8-8-24.5-20.2-31.4-10.6-6-21.3-11.5-31.9-17.5-12-6.8-21.4-16-23.8-30.3-3.1-18.1,1.8-33.7,15.4-46.1,13.8-12.6,30-14.7,47.5-9,5.2,1.7,10.2,4,15.4,5.8,4.2,1.5,8.3,1.9,10.1-3.7a2.09,2.09,0,0,1,2.7-1.6c1.6.4,1.1,1.9,1.1,2.9.3,14.8.5,29.6.7,44.4,0,1.1.6,2.4-1.4,2.4-1.5,0-1.9-.8-2.3-2.1-1.2-4.3-2.6-8.6-4-12.8-3.2-9.4-7.8-18-15-25-12.3-12-32.1-12.3-43.2-.7-11.8,12.2-10.9,30.8,2.1,43.3,7.5,7.2,16.9,11,26,15.4,11.7,5.7,23.6,10.9,32.9,20.3,14.9,15,18,33,11.7,52.5S849.1,313.5,829,317c-14.8,2.6-29.1.3-42.9-5.5-2.9-1.2-5.8-2.5-8.8-3.6-4.3-1.6-7.9-.7-10.4,3.2-.7,1.1-1.4,2.4-3,2-1.9-.5-1.1-2.2-1.1-3.4-.1-7.5,0-15,0-22.5C762.9,287.3,762.9,287.3,763,287.3Z"/><path d="M1100.9,313.9h-67.5a20.85,20.85,0,0,1-2.5,0c-1.6-.4-4.3,1.2-4.5-1.5-.3-2.9,2.6-1.7,4.1-2.2,1.1-.3,2.3-.2,3.5-.5,10.9-2.4,17-9.9,18-22.2.3-3.1.5-6.3.5-9.5q-.15-52.2-.3-104.5c0-1.2-.1-2.3-.2-3.5-1-14.4-7.5-21.4-21.7-23.5-1.5-.2-4,.4-3.9-2,.1-2.6,2.6-1.5,4-1.5q36-.15,72,0c1.3,0,3.3-.9,3.7,1.3.4,2-1.4,2-2.7,2.1-19.1,1.8-22.9,13.3-23,27-.3,34.6-1.3,69.3.6,103.9,1.1,19.5,11.7,30.1,31.1,31.7a95.78,95.78,0,0,0,23.9-.9c16.6-3,27.5-12.7,33.2-28.3,1.7-4.8,2.8-9.9,4.3-14.8.3-1.1,0-3,2.1-2.8,2.4.1,1.7,2,1.7,3.4-.4,15-.9,30-1.2,44.9-.1,3.7-2.2,3.4-4.6,3.4C1147.8,313.8,1124.3,313.9,1100.9,313.9Z"/><path d="M930.1,315.9c-26.4.2-45.4-13.2-51.6-36.1-8.2-30,7.1-61.5,34.7-70.8,13.4-4.6,27.1-4.9,40.6-.1a26.94,26.94,0,0,1,11.2,7.3c3.3,3.6,4.7,7.7,3,12.4-1.3,3.6-4.1,5.5-8,5.7-5.3.3-8.3-2.9-10.6-7a41.89,41.89,0,0,1-2.6-7c-3.5-10.1-10.7-13.8-21.1-10.7a28.28,28.28,0,0,0-17.1,13.7c-11.5,20.7-14.2,42.1-3.6,64,5.9,12.2,15,21.2,29.3,22.9,14,1.7,23.6-3.9,29.8-16.6.6-1.3.5-4.1,2.9-3.1s.5,2.9,0,4.2c-5.4,14.1-16.5,20.2-30.9,21.2C934.1,316,932.1,315.9,930.1,315.9Z"/><path d="M1217.9,252.4c0,13-.1,26,0,39,.1,11.8,3,15.5,14.4,18.8,1.3.4,3.5.2,3.1,2.4s-2.4,1.3-3.8,1.3q-24,.15-48,0c-1.2,0-3.3,1-3.6-1.4-.2-2,1.7-1.9,2.8-2,10.8-1.1,14.4-7.2,15-17.8,1-17.5.7-35,.4-52.4a99.41,99.41,0,0,0-.8-13.4c-1.1-7.5-5.3-12.4-13.2-13.5-1.2-.2-3,.4-3-1.6s1.8-1.6,3-1.7c9.7-1.3,19.5-2.4,29.2-3.8,3.5-.5,4.2.7,4.2,4-.1,14.2-.1,28.3-.1,42.5C1217.7,252.4,1217.8,252.4,1217.9,252.4Z"/><path d="M1005.2,250.8c0,13.5-.1,27,0,40.5.2,11.9,3.2,15.5,14.5,18.8,1.3.4,3.5.2,3,2.4s-2.4,1.2-3.7,1.2q-24,.15-48,0c-1.3,0-3.4.9-3.4-1.6-.1-1.9,1.8-1.7,3-2,10.9-2.7,13.8-5.6,14.6-16.9a486.63,486.63,0,0,0,.1-63.9c-.6-10.4-4.2-14-14.2-16.3-1.1-.3-2.4,0-2.2-1.9.1-1.5,1.2-1.3,2.2-1.4,10.4-1.3,20.8-2.5,31.2-4,3.6-.5,2.8,1.6,2.8,3.5v41.5C1005.1,250.8,1005.1,250.8,1005.2,250.8Z"/><path d="M995,162a11.85,11.85,0,0,1,11.8,11.6,12.06,12.06,0,0,1-12.2,11.9,11.74,11.74,0,0,1-11.7-11.8A11.56,11.56,0,0,1,995,162Z"/><path d="M1196,173.8a11.9,11.9,0,0,1,23.8-.3,12,12,0,0,1-11.6,12A11.76,11.76,0,0,1,1196,173.8Z"/><path d="M1450.5,313.9h-72c-1.1,0-2.4.3-2.5-1.5s1-1.8,2.2-1.9a55,55,0,0,0,6.9-1.1c9.1-2.5,14.4-8.4,16-17.7a75,75,0,0,0,1.1-13.4c0-34.6-.1-69.3-.2-103.9a60.16,60.16,0,0,0-1.1-10.4c-1.8-8.9-8.6-15.2-17.7-16.7-1.5-.2-3-.3-4.5-.6-1.2-.2-2.9.1-2.7-2,.2-1.9,1.7-1.2,2.7-1.3h74.5c1,0,2.5-.6,2.8,1.2.3,2.1-1.3,1.9-2.6,2.1a62.56,62.56,0,0,0-7.3,1.4c-8.6,2.4-13.3,8.3-15.1,16.8a81.82,81.82,0,0,0-1.2,16.4c0,29,0,58,.2,87a98.67,98.67,0,0,0,1.1,14.4c2,13.8,10.1,22.6,23.7,25.5a75.62,75.62,0,0,0,36.6-1.2c13.9-4,22.5-13.7,27.4-26.9,1.7-4.7,2.8-9.6,4.1-14.4.4-1.5,0-3.7,2.6-3.4,2.4.3,1.4,2.3,1.3,3.5-.4,14.8-1,29.6-1.3,44.4-.1,3.7-1.9,3.8-4.7,3.8C1497.5,313.8,1474,313.9,1450.5,313.9Z"/><path d="M1590.5,301.7c-9.4,9.8-20.3,15.2-33.7,14.2a42,42,0,0,1-9.3-1.5c-10.6-2.9-17-10.1-18.2-20.1-1.3-10.7,3.8-20.5,13.5-25.8,7.4-4,15.7-5.4,23.6-7.7,5.6-1.6,11.2-3.2,16.1-6.4,3-2,5.7-4.5,6.5-8,2.3-9.8,2.2-19.6-2.6-28.7-3.4-6.4-9.4-9.4-16.5-9.3s-12.1,4-14.9,10.6c-.9,2.2-1.9,4.3-2.8,6.4-1.9,4.4-5.4,6.2-10,5.8-4.4-.3-7.6-2.7-8.8-6.9-1.3-4.4.2-8.2,3.9-11,6.3-4.8,13.9-6.3,21.5-7.4a67.24,67.24,0,0,1,35.2,4.4c11.3,4.5,15.5,10.6,15.6,22.8l.3,57a37,37,0,0,0,.9,9.4c1,4,3,7.2,7.2,8.1s8.3.4,11.3-3.3c.4-.5.9-1,1.3-1.5.8-1,1.6-1.8,2.9-.8,1,.8.4,1.8,0,2.7a17.42,17.42,0,0,1-10.3,9.6c-11.8,4.2-23.6.5-30.7-9.8A17.34,17.34,0,0,1,1590.5,301.7Zm0-48.9c-9.1,7.4-19.1,11.2-27.7,17.3a27.17,27.17,0,0,0-11.5,19c-1.2,8.3,2.5,16.8,8.8,20.3,6,3.3,14.5,1.7,20.7-3.9a27.08,27.08,0,0,0,7.6-13.2C1591.7,279.8,1590.1,266.9,1590.5,252.8Z"/></g><g id="Layer_4" data-name="Layer 4"><text class="cls-1" transform="translate(105.96 313.23)">N<tspan class="cls-2" x="176.62" y="0">B</tspan><tspan class="cls-3" x="322.13" y="0">I</tspan><tspan class="cls-4" x="398.29" y="0">S</tspan></text></g></svg>