<svg xmlns="http://www.w3.org/2000/svg" viewBox="0 0 953.51 538"><defs><style>.cls-1{fill:#487a2d;}.cls-2{fill:#f47d20;}.cls-3{fill:#85be42;}.cls-4{fill:#82bc00;}</style></defs><title>scilifelab_and_nbis</title><g id="Layer_2" data-name="Layer 2"><g id="g7130"><path id="path7134" class="cls-1" d="M558.3,152.8h0a6.24,6.24,0,0,0-5.57-3.42h-5.08a3.44,3.44,0,0,0-3.08,5l8.5,16.95,7.76,13.2A83.77,83.77,0,0,0,585,210.71l50.53,35.35a63.09,63.09,0,0,1,17.19,18l16.49,26.5,2.42-21.35-13.29-23.71a49.3,49.3,0,0,0-15.62-16.88L588,192.1l-5.3-4.83a95.56,95.56,0,0,1-20.88-27.47l-3.54-7"/><path id="path7136" class="cls-1" d="M588.26,350.88h0L570,334.23l-11-26.87.4-10.3-5.33,18.41L557,326.73a52.62,52.62,0,0,0,22.29,31.1l47.81,31.11a29,29,0,0,0,15.79,4.68h2a4.84,4.84,0,0,0,2.4-9.05l-59-33.69"/><path id="path7138" class="cls-1" d="M668.16,185.49h0l.21.39a7.48,7.48,0,0,1,.55,5.71l-2.07,6.73a2.6,2.6,0,0,1-4.53.83L635,164a5.54,5.54,0,0,1,4.66-8.94l8.5.43a7.42,7.42,0,0,1,6.18,3.93l13.84,26.05"/><path id="path7140" class="cls-2" d="M653.25,167.31h0a3.85,3.85,0,0,1-3.79,5.63l-40-4.13a3.76,3.76,0,0,0-.79,0l-44.86,4.59a3.84,3.84,0,0,1-3.86-2.17l-4.72-9.89a3.85,3.85,0,0,1,4.21-5.43l48.1,9.4a3.86,3.86,0,0,0,1.16,0l37.51-4.16A5.34,5.34,0,0,1,651.5,164l1.75,3.3"/><path id="path7142" class="cls-2" d="M665.51,193.77h0a3.84,3.84,0,0,1,.54,1.64h0a3.85,3.85,0,0,1-4.23,4.18l-33.29-3.45a3.86,3.86,0,0,0-.71,0l-42.48,3.49a3.84,3.84,0,0,1-2.92-1l-3.75-3.43a3.85,3.85,0,0,1,2.94-6.67l45.31,4a3.81,3.81,0,0,0,1.2-.08L656,186.1a6.05,6.05,0,0,1,6.53,2.77l3,4.9"/><path id="path7144" class="cls-2" d="M613.94,216.26l22.94,3.83a3.85,3.85,0,0,0,1.95-.18l9.41-3.41a3.85,3.85,0,0,1,4.94,4.88l-.18.53a3.85,3.85,0,0,1-3.94,2.57l-10.37-.82a3.84,3.84,0,0,0-1.59.21l-12.18,4.31a3.85,3.85,0,0,1-4-.93l-8.3-8.42a1.53,1.53,0,0,1,1.34-2.58"/><path id="path7146" class="cls-2" d="M564.59,333.17h0a3.85,3.85,0,0,0,4.39,2.58l23.82-4.61a3.87,3.87,0,0,1,.94-.07l17.67,1a3.85,3.85,0,0,0,3.64-2.1l.62-1.23a3.85,3.85,0,0,0-4.36-5.47l-17.3,4.3a3.84,3.84,0,0,1-1.5.07L565,323.51a2.35,2.35,0,0,0-2.58,3.06l2.16,6.6"/><path id="path7148" class="cls-2" d="M645.59,246.76l-6,2.9a3.84,3.84,0,0,1-1.73.39l-24.42-.34a3.84,3.84,0,0,0-3.8,3l-1.31,5.58a3.85,3.85,0,0,0,5,4.51l25.5-8.94a3.85,3.85,0,0,1,2-.15l6.23,1.2a3.85,3.85,0,0,0,4-5.83l-.56-.88a3.85,3.85,0,0,0-4.93-1.4"/><path id="path7150" class="cls-2" d="M665.93,274.49h0a3.85,3.85,0,0,1-3.74,5.18l-30.46-1.06a3.8,3.8,0,0,0-.88.07l-49.64,9.75a3.85,3.85,0,0,1-4-5.89l6.54-9.93a3.85,3.85,0,0,1,3.63-1.71l43.28,4.77a3.84,3.84,0,0,0,1.13,0l29-5.48a3.9,3.9,0,0,1,4.39,2.48l.69,1.86"/><path id="path7152" class="cls-2" d="M625.07,376.25h0a3.85,3.85,0,0,1-2.54,7l-26.39-1.89-.94,0-28.81,4.06a3.85,3.85,0,0,1-3.81-5.83l3.38-5.49a3.85,3.85,0,0,1,4.26-1.7l24.54,6.47a3.86,3.86,0,0,0,1.89,0l23.74-4a5.38,5.38,0,0,1,4,.89l.69.49"/><path id="path7154" class="cls-2" d="M653.4,293,646,307.79a3.85,3.85,0,0,1-3.85,2.1l-40.23-4.27a3.82,3.82,0,0,0-1,0l-39.18,6.27a3.85,3.85,0,0,1-3.93-5.73l2.32-4a3.85,3.85,0,0,1,3.57-1.91l37.25,2.39a3.79,3.79,0,0,0,1-.06L653.4,293h0"/><path id="path7156" class="cls-3" d="M660.94,202.23l8.3-12.67-.46,19a9.52,9.52,0,0,1-2,5.59l-8.62,11.15A104.56,104.56,0,0,1,636,246.58L584.82,283a52.15,52.15,0,0,0-8.73,7.82s-17.64,17.91-22,24.69c.69-3.51.87-5.4.87-5.4a64.22,64.22,0,0,1,12.86-29.43l4.26-5.44a54.17,54.17,0,0,1,11.82-11.14l50.21-34.74a78.62,78.62,0,0,0,11.1-9.31l7.32-7.39a66.2,66.2,0,0,0,8.4-10.39h0"/><path id="path7158" class="cls-3" d="M627.36,311.57l-33.7,23.32a101.91,101.91,0,0,0-27.45,28.25l-19,29.22a2,2,0,0,0,1.64,3h8.88a6.23,6.23,0,0,0,5.35-3l4.59-7.69a114.55,114.55,0,0,1,32-34.67l34.74-24.69a196.1,196.1,0,0,0,26.53-22.66l5.69-5.81A15.37,15.37,0,0,0,671,286.65l.65-17.41,0,.08c-3.22,7.45-6.6,10.86-9.92,14.5l-1.42,1.42a38,38,0,0,1-3.38,3l-29.54,23.32"/><path id="path7160" class="cls-4" d="M133.47,139.06V399.42h56V249l73.37,150.43h66.51V139.06h-56V289.14L199.52,139.06Z"/><path id="path7162" class="cls-4" d="M412.18,286v67.85h36q22.79,0,33.66-8.73t10.86-26.71q0-32.41-46.3-32.41H412.18Zm0-43.81h32.06q22.44,0,32.5-6.95t10.06-23q0-15-11-21.46t-34.64-6.5h-29v57.88ZM357,139.06h81q55.38,0,80.41,15.76t25,50.13q0,23.33-11,38.29a43.75,43.75,0,0,1-29.12,18V263q24.75,5.52,35.7,20.66t11,40.25q0,35.62-25.73,55.56t-69.9,19.95H357V139.06"/><path id="path7164" class="cls-4" d="M841.27,325.49q0,34.36-25.38,54.15t-70.61,19.79q-41.67,0-73.73-15.27v-50q26.35,11.46,44.61,16.14A135.19,135.19,0,0,0,749.55,355q18.16,0,27.87-6.77t9.7-20.13a21.84,21.84,0,0,0-4.27-13.28,47.44,47.44,0,0,0-12.56-11.19q-8.28-5.38-33.75-17.18-23.87-10.94-35.79-21A79.1,79.1,0,0,1,681.7,242q-7.12-13.36-7.12-31.24,0-33.67,23.42-52.93t64.73-19.27c13.53,0,21.45,1.84,33.65,5.29,13.59,3.84,20.54,5.4,33.63,10.44l.7,51c-18.1-12-30.52-16.18-41-19.44-9.44-2.95-20-2.55-28.8-2.55q-15.67,0-24,7.12A23.21,23.21,0,0,0,728.54,209a22.52,22.52,0,0,0,3.39,12.41q3.38,5.3,10.77,10.24t35,17.79q36.5,17,50,34.1t13.53,41.91"/></g></g></svg>