<?xml version="1.0" encoding="utf-8"?>
<!-- Generator: Adobe Illustrator 21.0.0, SVG Export Plug-In . SVG Version: 6.00 Build 0)  -->
<svg version="1.1" xmlns="http://www.w3.org/2000/svg" xmlns:xlink="http://www.w3.org/1999/xlink" x="0px" y="0px"
	 viewBox="0 0 500 500" style="enable-background:new 0 0 500 500;" xml:space="preserve">
<style type="text/css">
	.st0{fill:none;stroke:#FFFFFF;stroke-width:2;stroke-miterlimit:10;}
	.st1{fill:url(#XMLID_4_);}
	.st2{fill:url(#XMLID_5_);}
	.st3{fill:#263238;}
	.st4{fill:#5D4037;}
	.st5{fill:#90A4AE;}
	.st6{fill:#2E7AE5;}
	.st7{fill:#ECEFF1;}
	.st8{fill:url(#XMLID_6_);}
	.st9{fill:#CFD8DC;}
	.st10{fill:url(#XMLID_7_);}
	.st11{fill:url(#XMLID_8_);}
	.st12{fill:url(#XMLID_9_);}
	.st13{fill:#FFCBA4;}
	.st14{fill:#EAB588;}
	.st15{fill:url(#XMLID_10_);}
	.st16{fill:url(#XMLID_11_);}
	.st17{fill:#FFFFFF;}
	.st18{fill:none;stroke:#0F294C;stroke-width:1.5;stroke-linecap:round;stroke-miterlimit:10;}
	.st19{fill:#D81B61;}
	.st20{fill:#F06392;}
	.st21{opacity:0.5;fill:url(#XMLID_12_);}
	.st22{fill:#EC407A;}
	.st23{fill:#FAA629;}
	.st24{fill:#F78C1F;}
	.st25{fill:url(#XMLID_13_);}
	.st26{fill:#FCB64E;}
	.st27{fill:#229795;}
	.st28{fill:#6FC9C5;}
	.st29{fill:url(#XMLID_14_);}
	.st30{fill:#56BAB3;}
	.st31{fill:url(#XMLID_15_);}
	.st32{fill:url(#XMLID_16_);}
	.st33{fill:#E5E5E5;}
	.st34{fill:#78909C;}
	.st35{fill:url(#XMLID_17_);}
	.st36{fill:#D38D59;}
	.st37{fill:url(#XMLID_18_);}
	.st38{fill:#BEC8CC;}
	.st39{enable-background:new    ;}
	.st40{fill:#3F6570;}
	.st41{fill:#2E3333;}
	.st42{fill:#414849;}
	.st43{fill:#D0D2D3;}
	.st44{fill:#7986CB;}
	.st45{fill:#3949AB;}
	.st46{fill:none;stroke:#B3E5FC;stroke-width:2;stroke-linecap:round;stroke-linejoin:round;stroke-miterlimit:10;}
	.st47{fill:#FFE0B2;}
	.st48{fill:#0F294C;}
	.st49{fill:url(#XMLID_19_);}
	.st50{fill:url(#XMLID_20_);}
	.st51{fill:url(#XMLID_21_);}
	.st52{fill:#863D11;}
	.st53{fill:#9D5B36;}
	.st54{fill:#3E2723;}
	.st55{fill:#378F43;}
	.st56{fill:url(#XMLID_22_);}
	.st57{fill:#346A34;}
	.st58{fill:#FDD836;}
	.st59{fill:none;stroke:#FFFFFF;stroke-linecap:round;stroke-miterlimit:10;stroke-dasharray:5.0844,5.0844;}
	.st60{fill:#37474F;}
	.st61{opacity:0.8;fill:#FFFFFF;}
	.st62{opacity:0.67;fill:#FFF9C4;}
	.st63{fill:#FFC34C;}
	.st64{fill:none;stroke:#37474F;stroke-linecap:round;stroke-miterlimit:10;}
	.st65{fill:#FFFFFF;stroke:#FFFFFF;stroke-width:0.75;stroke-miterlimit:10;}
	.st66{fill:none;stroke:#F06392;stroke-width:2;stroke-linecap:round;stroke-linejoin:round;stroke-miterlimit:10;}
</style>
<g id="objects">
	<g id="XMLID_1336_">
		<path id="XMLID_3973_" class="st0" d="M378.7,182.2c0,1.1-0.7,1.5-1.7,1c-0.9-0.5-1.7-1.8-1.7-2.9s0.7-1.5,1.7-1
			C378,179.9,378.7,181.2,378.7,182.2z"/>
		<path id="XMLID_1143_" class="st0" d="M242.8,64.1c0,1.1-0.7,1.5-1.7,1c-0.9-0.5-1.7-1.8-1.7-2.9c0-1.1,0.7-1.5,1.7-1
			C242.1,61.8,242.8,63.1,242.8,64.1z"/>
		<path id="XMLID_1150_" class="st0" d="M399.5,142.8c0,1.1-0.7,1.5-1.7,1c-0.9-0.5-1.7-1.8-1.7-2.9s0.7-1.5,1.7-1
			C398.8,140.5,399.5,141.8,399.5,142.8z"/>
		<path id="XMLID_1151_" class="st0" d="M253.6,47.9c0,1.1-0.7,1.5-1.7,1c-0.9-0.5-1.7-1.8-1.7-2.9s0.7-1.5,1.7-1
			C252.9,45.6,253.6,46.9,253.6,47.9z"/>
		<path id="XMLID_1160_" class="st0" d="M310.7,112.3c0,1.1-0.7,1.5-1.7,1c-0.9-0.5-1.7-1.8-1.7-2.9c0-1.1,0.7-1.5,1.7-1
			C310,110,310.7,111.3,310.7,112.3z"/>
		<path id="XMLID_1186_" class="st0" d="M369,207.2c0,1.1-0.7,1.5-1.7,1c-0.9-0.5-1.7-1.8-1.7-2.9c0-1.1,0.7-1.5,1.7-1
			C368.3,204.8,369,206.1,369,207.2z"/>
		<path id="XMLID_1149_" class="st0" d="M194.5,73.2c0,1.1-0.7,1.5-1.7,1s-1.7-1.8-1.7-2.9s0.7-1.5,1.7-1S194.5,72.2,194.5,73.2z"/>
		<path id="XMLID_537_" class="st0" d="M394,176.7c0,3.6-2.5,5.1-5.6,3.3c-3.1-1.8-5.6-6.2-5.6-9.8c0-3.6,2.5-5.1,5.6-3.3
			C391.5,168.7,394,173.1,394,176.7z"/>
		<path id="XMLID_1148_" class="st0" d="M191.1,91.4c0,3.6-2.5,5.1-5.6,3.3c-3.1-1.8-5.6-6.2-5.6-9.8c0-3.6,2.5-5.1,5.6-3.3
			C188.5,83.4,191.1,87.8,191.1,91.4z"/>
		<linearGradient id="XMLID_4_" gradientUnits="userSpaceOnUse" x1="92.3248" y1="659.1692" x2="272.2191" y2="174.1736">
			<stop  offset="0" style="stop-color:#AD68A4"/>
			<stop  offset="0.1251" style="stop-color:#B271AA;stop-opacity:0.8749"/>
			<stop  offset="0.3312" style="stop-color:#C08AB9;stop-opacity:0.6688"/>
			<stop  offset="0.5928" style="stop-color:#D6B3D1;stop-opacity:0.4072"/>
			<stop  offset="0.8967" style="stop-color:#F4EAF3;stop-opacity:0.1033"/>
			<stop  offset="1" style="stop-color:#FFFFFF;stop-opacity:0"/>
		</linearGradient>
		<path id="XMLID_4254_" class="st1" d="M168.6,446.9l-40.8-23.5c-6.7-3.9-6.7-13.6,0-17.5l40.8-23.5c8.9-5.2,19.9-5.2,28.8,0
			l40.8,23.5c6.7,3.9,6.7,13.6,0,17.5l-40.8,23.5C188.5,452.1,177.5,452.1,168.6,446.9z"/>
		<linearGradient id="XMLID_5_" gradientUnits="userSpaceOnUse" x1="170.6039" y1="511.2526" x2="381.9384" y2="221.7646">
			<stop  offset="0" style="stop-color:#AD68A4"/>
			<stop  offset="0.1251" style="stop-color:#B271AA;stop-opacity:0.8749"/>
			<stop  offset="0.3312" style="stop-color:#C08AB9;stop-opacity:0.6688"/>
			<stop  offset="0.5928" style="stop-color:#D6B3D1;stop-opacity:0.4072"/>
			<stop  offset="0.8967" style="stop-color:#F4EAF3;stop-opacity:0.1033"/>
			<stop  offset="1" style="stop-color:#FFFFFF;stop-opacity:0"/>
		</linearGradient>
		<polygon id="XMLID_4253_" class="st2" points="295.8,446.2 330.9,446.2 449.2,378 238.7,256.5 126.4,323.5 322.6,434.9 
			295.8,434.9 		"/>
		<g id="XMLID_4250_">
			<path id="XMLID_4252_" class="st3" d="M204,369.9c0,0,16.5-5.6,21.9-3.9c5.4,1.7,0.9,11.7-12.4,19c-13.3,7.3-18.7,5.1-21.3,1.7
				c-2.1-2.6,1.8-13.4,1.8-13.4L204,369.9z"/>
			<path id="XMLID_4251_" class="st4" d="M182.6,269.1c0,0,18.5-11,25.9,7c6.9,16.6-2.2,87-3.6,97.7c-0.1,0.9-0.7,1.7-1.6,2.1
				c-1.5,0.7-4,1.4-6.8,0.4c-1.3-0.5-2.3-1.6-2.6-3l-16.9-70.2L182.6,269.1z"/>
		</g>
		<g id="XMLID_4247_">
			<path id="XMLID_4249_" class="st3" d="M231,384.8c0,0,16.5-5.6,21.9-3.9c5.4,1.7,0.9,11.7-12.4,19c-13.3,7.3-18.7,5.1-21.3,1.7
				c-2.1-2.6,1.8-13.4,1.8-13.4L231,384.8z"/>
			<path id="XMLID_4248_" class="st4" d="M209.6,284c0,0,18.5-11,25.9,7c6.9,16.6-2.2,87-3.6,97.7c-0.1,0.9-0.7,1.7-1.6,2.1
				c-1.5,0.7-4,1.4-6.8,0.4c-1.3-0.5-2.3-1.6-2.6-3L204.1,318L209.6,284z"/>
		</g>
		<g id="XMLID_4231_">
			<g id="XMLID_4236_">
				<g id="XMLID_4239_">
					<path id="XMLID_4246_" class="st5" d="M171,410.8l30.4-17.5c0.8-0.5,1.1-1.1,1.1-1.7l0.1,0v7.4l-0.1,0.1
						c-0.1,0.5-0.4,1.1-1.1,1.5L171,418V410.8L171,410.8z"/>
					<path id="XMLID_4245_" class="st5" d="M202.6,428.8L202.6,428.8l0-7.2v-0.2l-63.2-29.8v7.4l0.1,0.1c0.1,0.5,0.4,1.1,1.1,1.5
						l53.3,30.8c1.8,1,4.9,0.9,7-0.3C201.9,430.3,202.5,429.5,202.6,428.8z"/>
					<g id="XMLID_4240_">
						<path id="XMLID_4244_" class="st5" d="M141.1,430.9c-1.1-0.6-1.6-1.4-1.7-2.1l0,0v-7.1c0.1,0.7,0.7,1.5,1.7,2.1
							c2.1,1.2,5.2,1.3,7,0.3l22.9-13.2l0,0v7.1l-22.9,13.2C146.3,432.2,143.2,432.1,141.1,430.9z"/>
						<path id="XMLID_4243_" class="st6" d="M201.4,419.7l-22.9-13.2l22.9-13.2c0.8-0.5,1.1-1.1,1.1-1.7c0-0.8-0.5-1.6-1.6-2.3
							c-2.1-1.2-5.2-1.3-7-0.3L171,402.2L148.1,389c-1.8-1-4.9-0.9-7,0.3c-2.1,1.2-2.3,3-0.5,4l22.9,13.2l-22.9,13.2
							c-0.7,0.4-1.1,1-1.1,1.6c0,0.1-0.1,0.2-0.1,0.3v0c0.1,0.7,0.7,1.5,1.7,2.1c2.1,1.2,5.2,1.3,7,0.3l22.9-13.2l22.9,13.2
							c1.8,1,4.9,0.9,7-0.3C203,422.6,203.2,420.8,201.4,419.7z"/>
						<path id="XMLID_4242_" class="st7" d="M201.4,419.7l-22.9-13.2l22.9-13.2c0.8-0.5,1.1-1.1,1.1-1.7c0-0.8-0.5-1.6-1.6-2.3
							c-2.1-1.2-5.2-1.3-7-0.3L171,402.2L148.1,389c-1.8-1-4.9-0.9-7,0.3c-2.1,1.2-2.3,3-0.5,4l22.9,13.2l-22.9,13.2
							c-0.7,0.4-1.1,1-1.1,1.6c0,0.1-0.1,0.2-0.1,0.3v0c0.1,0.7,0.7,1.5,1.7,2.1c2.1,1.2,5.2,1.3,7,0.3l22.9-13.2l22.9,13.2
							c1.8,1,4.9,0.9,7-0.3C203,422.6,203.2,420.8,201.4,419.7z"/>
						<linearGradient id="XMLID_6_" gradientUnits="userSpaceOnUse" x1="140.1267" y1="404.027" x2="199.1711" y2="404.027">
							<stop  offset="0" style="stop-color:#FFFFFF;stop-opacity:0"/>
							<stop  offset="1" style="stop-color:#90A4AE"/>
						</linearGradient>
						<polygon id="XMLID_4241_" class="st8" points="178.5,406.5 186,402.2 189.9,400 174.9,400 171,402.2 171,402.2 171,408.1 
							181.2,408.1 						"/>
					</g>
				</g>
				<path id="XMLID_4238_" class="st9" d="M171,408.1L171,408.1c3.6,0,6.6-2.9,6.6-6.6v-26h-13.1v26
					C164.4,405.1,167.4,408.1,171,408.1z"/>
				<linearGradient id="XMLID_7_" gradientUnits="userSpaceOnUse" x1="171.0102" y1="402.8393" x2="171.0102" y2="375.4859">
					<stop  offset="0" style="stop-color:#FFFFFF;stop-opacity:0"/>
					<stop  offset="1" style="stop-color:#90A4AE"/>
				</linearGradient>
				<path id="XMLID_4237_" class="st10" d="M171,408.1L171,408.1c3.6,0,6.6-2.9,6.6-6.6v-26h-13.1v26
					C164.4,405.1,167.4,408.1,171,408.1z"/>
			</g>
			<path id="XMLID_4235_" class="st5" d="M109.7,342.2l26.9-1l25.5-14.7c4.2-2.5,10.7-2.7,14.3-0.6l22.5,13l23.9-0.9v17.1l0,0
				c-0.1,1.6-1.3,3.2-3.5,4.4l-48.9,28.3c-4.2,2.5-10.7,2.7-14.3,0.6L112.2,363c-1.6-0.9-2.4-2.2-2.4-3.5l0,0V342.2z"/>
			<linearGradient id="XMLID_8_" gradientUnits="userSpaceOnUse" x1="143.4997" y1="391.6638" x2="185.2352" y2="313.4696">
				<stop  offset="0" style="stop-color:#FFFFFF;stop-opacity:0"/>
				<stop  offset="1" style="stop-color:#90A4AE"/>
			</linearGradient>
			<path id="XMLID_4234_" class="st11" d="M109.7,342.2l26.9-1l25.5-14.7c4.2-2.5,10.7-2.7,14.3-0.6l22.5,13l23.9-0.9v17.1l0,0
				c-0.1,1.6-1.3,3.2-3.5,4.4l-48.9,28.3c-4.2,2.5-10.7,2.7-14.3,0.6L112.2,363c-1.6-0.9-2.4-2.2-2.4-3.5l0,0V342.2z"/>
			<path id="XMLID_4233_" class="st7" d="M112.2,345.8l43.9,25.4c3.7,2.1,10.1,1.9,14.3-0.6l48.9-28.3c4.2-2.5,4.7-6.2,1-8.3
				l-43.9-25.4c-3.7-2.1-10.1-1.9-14.3,0.6l-48.9,28.3C109,340,108.5,343.7,112.2,345.8z"/>
			<linearGradient id="XMLID_9_" gradientUnits="userSpaceOnUse" x1="155.4889" y1="392.6523" x2="174.6777" y2="299.107">
				<stop  offset="0" style="stop-color:#FFFFFF;stop-opacity:0"/>
				<stop  offset="1" style="stop-color:#90A4AE"/>
			</linearGradient>
			<path id="XMLID_4232_" class="st12" d="M112.2,345.8l43.9,25.4c3.7,2.1,10.1,1.9,14.3-0.6l48.9-28.3c4.2-2.5,4.7-6.2,1-8.3
				l-43.9-25.4c-3.7-2.1-10.1-1.9-14.3,0.6l-48.9,28.3C109,340,108.5,343.7,112.2,345.8z"/>
		</g>
		<path id="XMLID_4230_" class="st4" d="M116.7,315.3c0,0,0.6,41.8,47.7,41.8c20.9,0,66.4-35.1,66.4-35.1s5.1-15.9-6.4-24.2
			c-11.5-8.3-41.3-21.2-41.3-21.2L116.7,315.3z"/>
		<polygon id="XMLID_4229_" class="st5" points="119.8,336.8 113,340.7 113,241.1 119.8,237.2 		"/>
		<polygon id="XMLID_4228_" class="st13" points="384.4,387.3 391.1,391.2 391.1,291.5 384.4,287.6 		"/>
		<polygon id="XMLID_4226_" class="st14" points="295.8,337.6 106.3,228.2 208.4,169.2 397.9,278.7 		"/>
		<linearGradient id="XMLID_10_" gradientUnits="userSpaceOnUse" x1="364.3336" y1="274.0205" x2="397.8631" y2="274.0205">
			<stop  offset="0" style="stop-color:#AD68A4"/>
			<stop  offset="0.1251" style="stop-color:#B271AA;stop-opacity:0.8749"/>
			<stop  offset="0.3312" style="stop-color:#C08AB9;stop-opacity:0.6688"/>
			<stop  offset="0.5928" style="stop-color:#D6B3D1;stop-opacity:0.4072"/>
			<stop  offset="0.8967" style="stop-color:#F4EAF3;stop-opacity:0.1033"/>
			<stop  offset="1" style="stop-color:#FFFFFF;stop-opacity:0"/>
		</linearGradient>
		<polygon id="XMLID_1076_" class="st15" points="364.3,283 389.9,283 397.9,278.7 374.3,265 		"/>
		<linearGradient id="XMLID_11_" gradientUnits="userSpaceOnUse" x1="184.3956" y1="198.2349" x2="243.9204" y2="198.2349">
			<stop  offset="0" style="stop-color:#AD68A4"/>
			<stop  offset="0.1251" style="stop-color:#B271AA;stop-opacity:0.8749"/>
			<stop  offset="0.3312" style="stop-color:#C08AB9;stop-opacity:0.6688"/>
			<stop  offset="0.5928" style="stop-color:#D6B3D1;stop-opacity:0.4072"/>
			<stop  offset="0.8967" style="stop-color:#F4EAF3;stop-opacity:0.1033"/>
			<stop  offset="1" style="stop-color:#FFFFFF;stop-opacity:0"/>
		</linearGradient>
		<polygon id="XMLID_1071_" class="st16" points="184.4,200.3 204.1,200.3 208.5,214 243.9,214 243.9,195.9 205.9,182.4 		"/>
		<g id="XMLID_4217_">
			<polygon id="XMLID_4224_" class="st7" points="312.2,323.5 278,303.7 323.2,277.6 357.4,297.4 			"/>
			<polygon id="XMLID_4223_" class="st17" points="313.4,318.2 279.1,298.5 324.4,272.4 358.6,292.1 			"/>
			<g id="XMLID_4218_">
				<line id="XMLID_4222_" class="st18" x1="322.9" y1="277.5" x2="348" y2="292"/>
				<line id="XMLID_4221_" class="st18" x1="318.9" y1="280.4" x2="344" y2="294.9"/>
				<line id="XMLID_4220_" class="st18" x1="314.8" y1="283.3" x2="339.9" y2="297.8"/>
				<line id="XMLID_4219_" class="st18" x1="310.8" y1="286.2" x2="335.9" y2="300.7"/>
			</g>
		</g>
		<g id="XMLID_2255_">
			<polygon id="XMLID_2261_" class="st19" points="206.5,178.8 176.7,195.9 176.7,148.5 206.5,131.4 			"/>
			<polygon id="XMLID_2260_" class="st20" points="184.4,200.3 175.7,195.3 175.7,147.8 184.4,152.9 			"/>
			<polygon id="XMLID_2259_" class="st19" points="214.2,183.2 184.4,200.3 184.4,152.9 214.2,135.8 			"/>
			<linearGradient id="XMLID_12_" gradientUnits="userSpaceOnUse" x1="185.6546" y1="149.8804" x2="212.8444" y2="186.0269">
				<stop  offset="0" style="stop-color:#FFFFFF;stop-opacity:0"/>
				<stop  offset="0.1602" style="stop-color:#EDDCE3;stop-opacity:0.1602"/>
				<stop  offset="0.4447" style="stop-color:#CFA5B5;stop-opacity:0.4447"/>
				<stop  offset="0.6898" style="stop-color:#BA7C94;stop-opacity:0.6898"/>
				<stop  offset="0.8828" style="stop-color:#AD6380;stop-opacity:0.8828"/>
				<stop  offset="1" style="stop-color:#A85A78"/>
			</linearGradient>
			<polygon id="XMLID_2258_" class="st21" points="214.2,183.2 184.4,200.3 184.4,152.9 214.2,135.8 			"/>
			<polygon id="XMLID_2257_" class="st22" points="214.2,135.7 213.3,135.2 184.4,151.7 177.7,147.9 206.5,131.4 205.5,130.8 
				176.7,147.3 176.7,147.3 175.7,147.9 176.7,148.5 176.7,148.5 184.4,152.9 185.4,152.3 185.4,152.3 			"/>
			<polygon id="XMLID_2256_" class="st17" points="179.7,149 206.5,133.6 211.3,136.3 184.4,151.7 			"/>
		</g>
		<g id="XMLID_2248_">
			<polygon id="XMLID_2254_" class="st23" points="220.6,186.8 197.7,199.9 197.7,157.3 220.6,144.2 			"/>
			<polygon id="XMLID_2253_" class="st24" points="205.4,204.3 196.7,199.3 196.7,156.7 205.4,161.7 			"/>
			<polygon id="XMLID_2252_" class="st23" points="228.3,191.2 205.4,204.3 205.4,161.7 228.3,148.6 			"/>
			<linearGradient id="XMLID_13_" gradientUnits="userSpaceOnUse" x1="204.8424" y1="170.0247" x2="226.9141" y2="181.8602">
				<stop  offset="0" style="stop-color:#FFFFFF;stop-opacity:0"/>
				<stop  offset="4.078156e-02" style="stop-color:#FFFAF3;stop-opacity:4.078156e-02"/>
				<stop  offset="0.3046" style="stop-color:#FDDDAC;stop-opacity:0.3046"/>
				<stop  offset="0.5418" style="stop-color:#FCC574;stop-opacity:0.5418"/>
				<stop  offset="0.744" style="stop-color:#FBB44B;stop-opacity:0.744"/>
				<stop  offset="0.9033" style="stop-color:#FAAA32;stop-opacity:0.9033"/>
				<stop  offset="1" style="stop-color:#FAA629"/>
			</linearGradient>
			<polygon id="XMLID_2251_" class="st25" points="228.3,191.2 205.4,204.3 205.4,161.7 228.3,148.6 			"/>
			<polygon id="XMLID_2250_" class="st26" points="228.3,148.6 227.3,148 205.4,160.5 198.7,156.7 220.6,144.2 219.6,143.6 
				197.7,156.1 197.7,156.1 196.7,156.7 197.7,157.3 197.7,157.3 205.4,161.7 206.4,161.1 206.4,161.1 			"/>
			<polygon id="XMLID_2249_" class="st17" points="200.7,157.8 220.6,146.4 225.3,149.1 205.4,160.5 			"/>
		</g>
		<g id="XMLID_2241_">
			<polygon id="XMLID_2247_" class="st27" points="230.4,192.5 200.8,209.6 200.8,179.2 230.4,162.1 			"/>
			<polygon id="XMLID_2246_" class="st28" points="208.5,214 199.8,209 199.8,178.6 208.5,183.6 			"/>
			<polygon id="XMLID_2245_" class="st27" points="238.2,196.9 208.5,214 208.5,183.7 238.2,166.5 			"/>
			<linearGradient id="XMLID_14_" gradientUnits="userSpaceOnUse" x1="208.5236" y1="190.2827" x2="238.166" y2="190.2827">
				<stop  offset="0" style="stop-color:#FFFFFF;stop-opacity:0"/>
				<stop  offset="0.2348" style="stop-color:#C6E6E7;stop-opacity:0.2348"/>
				<stop  offset="0.4939" style="stop-color:#8FCDD0;stop-opacity:0.4939"/>
				<stop  offset="0.7172" style="stop-color:#66BABF;stop-opacity:0.7172"/>
				<stop  offset="0.8932" style="stop-color:#4DAFB5;stop-opacity:0.8932"/>
				<stop  offset="1" style="stop-color:#44ABB1"/>
			</linearGradient>
			<polygon id="XMLID_2244_" class="st29" points="238.2,196.9 208.5,214 208.5,183.7 238.2,166.5 			"/>
			<polygon id="XMLID_2243_" class="st30" points="238.2,166.5 237.2,165.9 208.5,182.4 201.9,178.6 230.4,162.1 229.5,161.6 
				200.8,178 200.8,178 199.8,178.6 200.8,179.2 200.8,179.2 208.5,183.7 209.6,183 209.5,183 			"/>
			<polygon id="XMLID_2242_" class="st17" points="203.8,179.8 230.4,164.4 235.2,167.1 208.5,182.4 			"/>
		</g>
		<linearGradient id="XMLID_15_" gradientUnits="userSpaceOnUse" x1="239.8462" y1="270.1487" x2="286.1006" y2="178.8359">
			<stop  offset="0" style="stop-color:#AD68A4"/>
			<stop  offset="0.1251" style="stop-color:#B271AA;stop-opacity:0.8749"/>
			<stop  offset="0.3312" style="stop-color:#C08AB9;stop-opacity:0.6688"/>
			<stop  offset="0.5928" style="stop-color:#D6B3D1;stop-opacity:0.4072"/>
			<stop  offset="0.8967" style="stop-color:#F4EAF3;stop-opacity:0.1033"/>
			<stop  offset="1" style="stop-color:#FFFFFF;stop-opacity:0"/>
		</linearGradient>
		<path id="XMLID_4216_" class="st31" d="M263.2,228.1l-32.2-18.5c-1-0.6-1.1-2-0.2-2.7l9.4-7.3l56.3,39.8L263.2,228.1z"/>
		<g id="XMLID_4089_">
			<linearGradient id="XMLID_16_" gradientUnits="userSpaceOnUse" x1="267.5179" y1="283.7551" x2="327.7283" y2="288.1412">
				<stop  offset="0" style="stop-color:#AD68A4"/>
				<stop  offset="0.1251" style="stop-color:#B271AA;stop-opacity:0.8749"/>
				<stop  offset="0.3312" style="stop-color:#C08AB9;stop-opacity:0.6688"/>
				<stop  offset="0.5928" style="stop-color:#D6B3D1;stop-opacity:0.4072"/>
				<stop  offset="0.8967" style="stop-color:#F4EAF3;stop-opacity:0.1033"/>
				<stop  offset="1" style="stop-color:#FFFFFF;stop-opacity:0"/>
			</linearGradient>
			<path id="XMLID_4094_" class="st32" d="M307.6,281.4l-5.9-3.3l-19.2,15h9.6c3.2,0,6.3-0.8,9.1-2.4l6.4-3.7
				C309.7,285.7,309.7,282.6,307.6,281.4z"/>
			<path id="XMLID_4093_" class="st17" d="M301.7,274l-8.1-4.7c-2-1.1-4.3-1.3-6.4-0.5l-8.4,3.2c-2,0.8-3.8,2-5.2,3.5
				c-2.3,2.5-3.6,5.8-3.6,9.2c0,0.9,0.5,1.7,1.3,2.2l9.9,5.8c0.9,0.5,2,0.5,2.9,0l0.6-0.4l-2-1.4c0.2-3,1.5-5.8,3.5-8.1
				c1.4-1.6,3.2-2.8,5.2-3.5l9.7-3.7l2,1.6v-0.8C303.1,275.5,302.5,274.5,301.7,274z"/>
			<path id="XMLID_4092_" class="st33" d="M291.3,279.3l10.1-3.8c0.8-0.3,1.7,0.3,1.7,1.2l0,3.7c0,0.8-0.4,1.5-1.1,1.9l-18.3,10.5
				c-0.6,0.3-1.3-0.1-1.3-0.7l0,0c0-3.4,1.3-6.7,3.6-9.2l0,0C287.5,281.3,289.3,280,291.3,279.3z"/>
			<polygon id="XMLID_4091_" class="st34" points="295.8,270.6 285.8,273.5 286.3,273.8 296.2,270.9 			"/>
			<path id="XMLID_4090_" class="st34" d="M292.3,270.4l-4.7,1.3c-0.3,0.1-0.5,0.3-0.6,0.6l0,0c-0.1,0.3,0.1,0.7,0.4,0.8l0.7,0.4
				c0.2,0.1,0.4,0.1,0.6,0.1l4.7-1.3c0.3-0.1,0.5-0.3,0.6-0.6l0,0c0.1-0.3-0.1-0.7-0.4-0.8l-0.7-0.4
				C292.7,270.4,292.5,270.3,292.3,270.4z"/>
		</g>
		<linearGradient id="XMLID_17_" gradientUnits="userSpaceOnUse" x1="301.9431" y1="301.6036" x2="348.1974" y2="210.2913">
			<stop  offset="0" style="stop-color:#AD68A4"/>
			<stop  offset="0.1251" style="stop-color:#B271AA;stop-opacity:0.8749"/>
			<stop  offset="0.3312" style="stop-color:#C08AB9;stop-opacity:0.6688"/>
			<stop  offset="0.5928" style="stop-color:#D6B3D1;stop-opacity:0.4072"/>
			<stop  offset="0.8967" style="stop-color:#F4EAF3;stop-opacity:0.1033"/>
			<stop  offset="1" style="stop-color:#FFFFFF;stop-opacity:0"/>
		</linearGradient>
		<path id="XMLID_4088_" class="st35" d="M270.6,257.3h4.2c3.8,0,7.5-1,10.8-2.8l12-6.7l48.6,28.1c3,1.7,6.7,1.7,9.7,0l18.5-10.8
			l-75.6-43.7L270.6,257.3z"/>
		<g id="XMLID_4084_">
			<polygon id="XMLID_4087_" class="st36" points="295.8,337.6 295.8,346.6 397.9,287.6 397.9,278.7 			"/>
			<polygon id="XMLID_4086_" class="st36" points="302.5,442.3 302.5,342.7 295.8,346.6 295.8,446.2 			"/>
			<polygon id="XMLID_4085_" class="st36" points="391.1,391.2 397.9,387.3 397.9,287.6 391.1,291.5 			"/>
		</g>
		<g id="XMLID_4077_">
			<polygon id="XMLID_4079_" class="st13" points="106.3,228.2 106.3,237.2 106.3,336.8 113,340.7 113,241.1 295.8,346.6 
				295.8,337.6 			"/>
			<polygon id="XMLID_4078_" class="st13" points="289,442.3 295.8,446.2 295.8,346.6 289,342.7 			"/>
		</g>
		<linearGradient id="XMLID_18_" gradientUnits="userSpaceOnUse" x1="126.2671" y1="301.3156" x2="291.6003" y2="272.649">
			<stop  offset="0" style="stop-color:#AD68A4"/>
			<stop  offset="0.1251" style="stop-color:#B271AA;stop-opacity:0.8749"/>
			<stop  offset="0.3312" style="stop-color:#C08AB9;stop-opacity:0.6688"/>
			<stop  offset="0.5928" style="stop-color:#D6B3D1;stop-opacity:0.4072"/>
			<stop  offset="0.8967" style="stop-color:#F4EAF3;stop-opacity:0.1033"/>
			<stop  offset="1" style="stop-color:#FFFFFF;stop-opacity:0"/>
		</linearGradient>
		<path id="XMLID_1320_" class="st37" d="M205.4,248.8c0.6,0.2,61.8,17.7,61.8,17.7l8.2,5.5l-0.6,16.9L248,310v9l-50.3-29
			L205.4,248.8z"/>
		<g id="XMLID_4095_">
			<polygon id="XMLID_4215_" class="st38" points="267.2,262.8 267.2,266.6 246.2,278.7 246.2,275 			"/>
			<polygon id="XMLID_4214_" class="st33" points="246.2,275 246.2,278.7 191,246.9 191,243.1 			"/>
			<polygon id="XMLID_4213_" class="st17" points="267.2,262.8 246.2,275 191,243.1 212,230.9 			"/>
			<g id="XMLID_4096_">
				<g id="XMLID_4206_" class="st39">
					<g id="XMLID_4211_">
						<polygon id="XMLID_4212_" class="st40" points="220.5,238.4 220.5,239.6 216.4,242 216.4,240.8 						"/>
					</g>
					<g id="XMLID_4209_">
						<polygon id="XMLID_4210_" class="st38" points="216.4,240.8 216.4,242 208.2,237.2 208.2,236.1 						"/>
					</g>
					<g id="XMLID_4207_">
						<polygon id="XMLID_4208_" class="st34" points="220.5,238.4 216.4,240.8 208.2,236.1 212.3,233.7 						"/>
					</g>
				</g>
				<g id="XMLID_4199_" class="st39">
					<g id="XMLID_4204_">
						<polygon id="XMLID_4205_" class="st40" points="214.8,241.8 214.8,242.9 210.7,245.3 210.7,244.2 						"/>
					</g>
					<g id="XMLID_4202_">
						<polygon id="XMLID_4203_" class="st38" points="210.7,244.2 210.7,245.3 202.5,240.5 202.5,239.4 						"/>
					</g>
					<g id="XMLID_4200_">
						<polygon id="XMLID_4201_" class="st34" points="214.8,241.8 210.7,244.2 202.5,239.4 206.6,237 						"/>
					</g>
				</g>
				<g id="XMLID_4192_" class="st39">
					<g id="XMLID_4197_">
						<polygon id="XMLID_4198_" class="st41" points="205.9,243.2 205.9,244.4 201.7,246.8 201.7,245.6 						"/>
					</g>
					<g id="XMLID_4195_">
						<polygon id="XMLID_4196_" class="st41" points="201.7,245.6 201.7,246.8 196.8,243.9 196.8,242.7 						"/>
					</g>
					<g id="XMLID_4193_">
						<polygon id="XMLID_4194_" class="st42" points="205.9,243.2 201.7,245.6 196.8,242.7 200.9,240.3 						"/>
					</g>
				</g>
				<g id="XMLID_4185_" class="st39">
					<g id="XMLID_4190_">
						<polygon id="XMLID_4191_" class="st40" points="227,242.2 227,243.3 222.9,245.7 222.9,244.6 						"/>
					</g>
					<g id="XMLID_4188_">
						<polygon id="XMLID_4189_" class="st38" points="222.9,244.6 222.9,245.7 218.2,243 218.2,241.9 						"/>
					</g>
					<g id="XMLID_4186_">
						<polygon id="XMLID_4187_" class="st34" points="227,242.2 222.9,244.6 218.2,241.9 222.3,239.5 						"/>
					</g>
				</g>
				<g id="XMLID_2204_" class="st39">
					<g id="XMLID_4183_">
						<polygon id="XMLID_4184_" class="st40" points="221.3,245.5 221.3,246.6 217.2,249 217.2,247.9 						"/>
					</g>
					<g id="XMLID_4181_">
						<polygon id="XMLID_4182_" class="st38" points="217.2,247.9 217.2,249 212.4,246.3 212.5,245.2 						"/>
					</g>
					<g id="XMLID_4179_">
						<polygon id="XMLID_4180_" class="st34" points="221.3,245.5 217.2,247.9 212.5,245.2 216.6,242.8 						"/>
					</g>
				</g>
				<g id="XMLID_4171_" class="st39">
					<g id="XMLID_2201_">
						<polygon id="XMLID_2202_" class="st40" points="233.4,245.9 233.4,247 229.2,249.4 229.2,248.3 						"/>
					</g>
					<g id="XMLID_4174_">
						<polygon id="XMLID_4175_" class="st38" points="229.2,248.3 229.2,249.4 224.5,246.7 224.5,245.5 						"/>
					</g>
					<g id="XMLID_4172_">
						<polygon id="XMLID_4173_" class="st34" points="233.4,245.9 229.2,248.3 224.5,245.5 228.6,243.1 						"/>
					</g>
				</g>
				<g id="XMLID_4164_" class="st39">
					<g id="XMLID_4169_">
						<polygon id="XMLID_4170_" class="st40" points="227.7,249.2 227.7,250.3 223.5,252.7 223.5,251.6 						"/>
					</g>
					<g id="XMLID_4167_">
						<polygon id="XMLID_4168_" class="st38" points="223.5,251.6 223.5,252.7 218.8,250 218.8,248.8 						"/>
					</g>
					<g id="XMLID_4165_">
						<polygon id="XMLID_4166_" class="st34" points="227.7,249.2 223.5,251.6 218.8,248.8 222.9,246.4 						"/>
					</g>
				</g>
				<g id="XMLID_4157_" class="st39">
					<g id="XMLID_4162_">
						<polygon id="XMLID_4163_" class="st40" points="239.6,249.5 239.6,250.6 235.5,253 235.5,251.9 						"/>
					</g>
					<g id="XMLID_4160_">
						<polygon id="XMLID_4161_" class="st38" points="235.5,251.9 235.5,253 230.8,250.3 230.8,249.1 						"/>
					</g>
					<g id="XMLID_4158_">
						<polygon id="XMLID_4159_" class="st34" points="239.6,249.5 235.5,251.9 230.8,249.1 234.9,246.7 						"/>
					</g>
				</g>
				<g id="XMLID_4150_" class="st39">
					<g id="XMLID_4155_">
						<polygon id="XMLID_4156_" class="st40" points="233.9,252.8 233.9,253.9 229.8,256.3 229.8,255.2 						"/>
					</g>
					<g id="XMLID_4153_">
						<polygon id="XMLID_4154_" class="st38" points="229.8,255.2 229.8,256.3 225.1,253.6 225.1,252.5 						"/>
					</g>
					<g id="XMLID_4151_">
						<polygon id="XMLID_4152_" class="st34" points="233.9,252.8 229.8,255.2 225.1,252.5 229.2,250.1 						"/>
					</g>
				</g>
				<g id="XMLID_4143_" class="st39">
					<g id="XMLID_4148_">
						<polygon id="XMLID_4149_" class="st40" points="246,253.2 246,254.3 241.9,256.7 241.9,255.5 						"/>
					</g>
					<g id="XMLID_4146_">
						<polygon id="XMLID_4147_" class="st38" points="241.9,255.5 241.9,256.7 237.1,253.9 237.1,252.8 						"/>
					</g>
					<g id="XMLID_4144_">
						<polygon id="XMLID_4145_" class="st34" points="246,253.2 241.9,255.5 237.1,252.8 241.2,250.4 						"/>
					</g>
				</g>
				<g id="XMLID_4136_" class="st39">
					<g id="XMLID_4141_">
						<polygon id="XMLID_4142_" class="st40" points="240.3,256.5 240.3,257.6 236.1,260 236.2,258.9 						"/>
					</g>
					<g id="XMLID_4139_">
						<polygon id="XMLID_4140_" class="st38" points="236.2,258.9 236.1,260 231.4,257.3 231.4,256.1 						"/>
					</g>
					<g id="XMLID_4137_">
						<polygon id="XMLID_4138_" class="st34" points="240.3,256.5 236.2,258.9 231.4,256.1 235.5,253.7 						"/>
					</g>
				</g>
				<g id="XMLID_4125_" class="st39">
					<g id="XMLID_4134_">
						<polygon id="XMLID_4135_" class="st40" points="254.8,258.3 254.8,259.4 249.1,262.7 249.1,261.6 						"/>
					</g>
					<g id="XMLID_4132_">
						<polygon id="XMLID_4133_" class="st38" points="240.8,261.6 240.8,262.7 237.8,261 237.8,259.8 						"/>
					</g>
					<g id="XMLID_4130_">
						<polygon id="XMLID_4131_" class="st38" points="245,264 245,265.1 240.8,262.7 240.8,261.6 						"/>
					</g>
					<g id="XMLID_4128_">
						<polygon id="XMLID_4129_" class="st40" points="249.1,261.6 249.1,262.7 245,265.1 245,264 						"/>
					</g>
					<g id="XMLID_4126_">
						<polygon id="XMLID_4127_" class="st34" points="254.8,258.3 249.1,261.6 245,264 240.8,261.6 237.8,259.8 241.9,257.4 
							245,259.2 250.7,255.9 						"/>
					</g>
				</g>
				<g id="XMLID_4118_" class="st39">
					<g id="XMLID_4123_">
						<polygon id="XMLID_4124_" class="st40" points="243.4,264.9 243.4,266 239.3,268.4 239.3,267.3 						"/>
					</g>
					<g id="XMLID_4121_">
						<polygon id="XMLID_4122_" class="st38" points="239.3,267.3 239.3,268.4 203.9,248 203.9,246.9 						"/>
					</g>
					<g id="XMLID_4119_">
						<polygon id="XMLID_4120_" class="st34" points="243.4,264.9 239.3,267.3 203.9,246.9 208,244.5 						"/>
					</g>
				</g>
				<g id="XMLID_4111_" class="st39">
					<g id="XMLID_4116_">
						<polygon id="XMLID_4117_" class="st40" points="261.5,262.1 261.5,263.2 257.3,265.6 257.3,264.5 						"/>
					</g>
					<g id="XMLID_4114_">
						<polygon id="XMLID_4115_" class="st38" points="257.3,264.5 257.3,265.6 252.6,262.9 252.6,261.7 						"/>
					</g>
					<g id="XMLID_4112_">
						<polygon id="XMLID_4113_" class="st34" points="261.5,262.1 257.3,264.5 252.6,261.7 256.7,259.3 						"/>
					</g>
				</g>
				<g id="XMLID_4104_" class="st39">
					<g id="XMLID_4109_">
						<polygon id="XMLID_4110_" class="st40" points="255.7,265.4 255.7,266.5 251.6,268.9 251.6,267.8 						"/>
					</g>
					<g id="XMLID_4107_">
						<polygon id="XMLID_4108_" class="st38" points="251.6,267.8 251.6,268.9 246.9,266.2 246.9,265.1 						"/>
					</g>
					<g id="XMLID_4105_">
						<polygon id="XMLID_4106_" class="st34" points="255.7,265.4 251.6,267.8 246.9,265.1 251,262.7 						"/>
					</g>
				</g>
				<g id="XMLID_4097_" class="st39">
					<g id="XMLID_4102_">
						<polygon id="XMLID_4103_" class="st40" points="250,268.7 250,269.8 245.9,272.2 245.9,271.1 						"/>
					</g>
					<g id="XMLID_4100_">
						<polygon id="XMLID_4101_" class="st38" points="245.9,271.1 245.9,272.2 241.2,269.5 241.2,268.4 						"/>
					</g>
					<g id="XMLID_4098_">
						<polygon id="XMLID_4099_" class="st34" points="250,268.7 245.9,271.1 241.2,268.4 245.3,266 						"/>
					</g>
				</g>
			</g>
		</g>
		<path id="XMLID_4073_" class="st43" d="M242.3,243.9l19.8,11.4c4.8,2.8,12.8,2.5,16.9-0.7l22.6-18.3l-26.5-15.3l-31.7,13
			C238,236.5,237.5,241.1,242.3,243.9z"/>
		<path id="XMLID_4072_" class="st33" d="M242.3,243.9l19.8,11.4c4.8,2.8,12.8,2.5,16.9-0.7l22.6-18.3l-26.5-15.3l-31.7,13
			C238,236.5,237.5,241.1,242.3,243.9z"/>
		<path id="XMLID_4071_" class="st33" d="M221.1,192.5l13.2-96.3c0.2-1.5,5.3-4.4,8.7-2.6L358,159.9c1.6,0.9,2.5,2.8,2.2,4.6
			l-15.5,95.7c-0.4,2.2-2.3,3.7-4.3,3.8l0,0h-3.3l1-0.6c0,0-0.1,0-0.1,0l-114.7-66.3C221.7,196.1,220.8,194.3,221.1,192.5z"/>
		<path id="XMLID_4070_" class="st17" d="M335,264.6l-114.7-66.3c-1.6-0.9-2.5-2.8-2.2-4.6L233.3,98c0.5-3.1,4-4.8,6.7-3.2
			L355,161.2c1.6,0.9,2.5,2.8,2.2,4.6l-15.5,95.7C341.2,264.6,337.7,266.2,335,264.6z"/>
		<path id="XMLID_4069_" class="st44" d="M335,256.3l-109.3-63.2c-1-0.6-1.5-1.7-1.3-2.8l13.6-85.8c0.3-1.9,2.4-2.9,4.1-1.9
			l107.5,62.1c1,0.6,1.5,1.7,1.3,2.8l-14.2,88C336.6,256.3,335.7,256.7,335,256.3z"/>
		<path id="XMLID_4068_" class="st45" d="M227.5,192.2c-1-0.6-1.5-1.7-1.3-2.8l13.6-85.8c0.1-0.5,0.3-1,0.7-1.4
			c-1.2,0.1-2.2,1-2.5,2.3l-13.6,85.8c-0.2,1.1,0.4,2.2,1.3,2.8L335,256.3c0.7,0.4,1.6,0,1.7-0.8l0-0.1L227.5,192.2z"/>
		<line id="XMLID_4054_" class="st46" x1="246.7" y1="118.4" x2="264.2" y2="128.5"/>
		<g id="XMLID_4050_">
			<line id="XMLID_4053_" class="st46" x1="337" y1="170.5" x2="340.4" y2="172.4"/>
			<line id="XMLID_4052_" class="st46" x1="330.5" y1="166.8" x2="333.4" y2="168.4"/>
			<line id="XMLID_4051_" class="st46" x1="323.7" y1="162.8" x2="326.6" y2="164.5"/>
		</g>
		<path id="XMLID_4049_" class="st47" d="M190.7,136.6c0,0,17.5,40.2-12.6,51.8C148,199.9,190.7,136.6,190.7,136.6z"/>
		<path id="XMLID_4048_" class="st47" d="M264.4,271.9c0.1-0.2,0.2-0.4,0.6-0.6c1.4-0.9,2.8-1.7,4.2-2.5c2.2-1.2,4.8-2.5,7.3-2.1
			c2.9,0.4,13.3,3.6,15.1,5.3c1.1,1,0.4,2.5-0.5,3.4c-1.4,1.3-3.3,2-5.1,2.4c-2.1,0.5-4.8,0.5-6.4,2.3c-1.8,2-3.6,3.9-5.9,5.5
			c-0.9,0.6-1.9,1.2-2.9,1.5c-1,0.3-2.7,0.5-3.2-0.6c-0.5-1.3-0.9-2.6-1.5-3.9c-1.1-2.4-2.3-5-2.2-7.7c0-0.7,0.4-1.3,0.5-2
			C264.3,272.3,264.3,272.1,264.4,271.9z"/>
		<path id="XMLID_4047_" class="st17" d="M180.2,195.7c0,0,24.7,19.7,28.8,47.5c4.1,27.8,6,31,12.1,30.9c7.1-0.1,35.6-2.6,42.5-3.3
			c0,0,11.1,6.4,4,18.6c0,0-44.9,17.9-58.7,17.9c-19.8,0-24.4-30.7-24.4-30.7s5.6,7.6,3.8,25.2c0,0-27.3,22.7-68.6,2.6
			c0,0-7.6-79.4,6.7-105.8C140.7,172.2,180.2,195.7,180.2,195.7z"/>
		<path id="XMLID_4046_" class="st48" d="M190.7,136.6c0,0,3.3,1.1,5,7.4c0,0,8.2-17.3-15.5-30.4c-9.2-5.1-17.5-6.8-27.2-3
			c-10.3,4.1-18.9,9.3-24.1,19.6c-12.5,25,0.2,54.6,26.7,62.8c4.4,1.4,9.2,2.1,13.8,1c15.8-3.7,7.6-24.7,13.9-36.4
			C192.4,141.1,190.7,136.6,190.7,136.6z"/>
		<path id="XMLID_4045_" class="st5" d="M96.9,234.1c0,0,12.5-8.6,25-5s51.6,21.3,51.6,39.3c0,14.2,0,44.5,0,49.7
			c0,5.2-3.4,14.2-18.7,17.3L96.9,234.1z"/>
		<linearGradient id="XMLID_19_" gradientUnits="userSpaceOnUse" x1="135.2273" y1="256.765" x2="135.2273" y2="334.8418">
			<stop  offset="0" style="stop-color:#FFFFFF;stop-opacity:0"/>
			<stop  offset="1" style="stop-color:#90A4AE"/>
		</linearGradient>
		<path id="XMLID_4044_" class="st49" d="M96.9,234.1c0,0,12.5-8.6,25-5s51.6,21.3,51.6,39.3c0,14.2,0,44.5,0,49.7
			c0,5.2-3.4,14.2-18.7,17.3L96.9,234.1z"/>
		<path id="XMLID_4043_" class="st9" d="M102.5,307l47.9,27.6c4.2,2.4,7.7-0.2,7.7-5.8v-52.6c0-5.6-3.4-12.2-7.7-14.6l-47.9-27.6
			c-4.2-2.4-7.7,0.2-7.7,5.8v52.6C94.8,298,98.3,304.6,102.5,307z"/>
		<path id="XMLID_4042_" class="st5" d="M120.7,291.9l6.5,3.8c2.9,1.7,5.2-0.1,5.2-4V286c0-3.9-2.3-8.3-5.2-10l-6.5-3.8
			c-2.9-1.7-5.2,0.1-5.2,4v5.7C115.4,285.8,117.8,290.2,120.7,291.9z"/>
		<g id="XMLID_4037_">
			<path id="XMLID_4041_" class="st7" d="M118.3,276.2c0,0-12.4,5-12.4,26v47.7c0,13.7,11.1,24.8,24.8,24.8h8.7v-8.2l-16.6-9.4
				c0,0,0-39.8,0-48.9c0-9.1,2.7-14.5,5.7-16.4C128.6,291.9,131.2,278.6,118.3,276.2z"/>
			<linearGradient id="XMLID_20_" gradientUnits="userSpaceOnUse" x1="122.6804" y1="289.266" x2="122.6804" y2="397.1943">
				<stop  offset="0" style="stop-color:#FFFFFF;stop-opacity:0"/>
				<stop  offset="1" style="stop-color:#90A4AE"/>
			</linearGradient>
			<path id="XMLID_4040_" class="st50" d="M118.3,276.2c0,0-12.4,5-12.4,26v47.7c0,13.7,11.1,24.8,24.8,24.8h8.7v-8.2l-16.6-9.4
				c0,0,0-39.8,0-48.9c0-9.1,2.7-14.5,5.7-16.4C128.6,291.9,131.2,278.6,118.3,276.2z"/>
			<path id="XMLID_4039_" class="st9" d="M139.4,366.5c0,0-16.6,0.9-16.6-9.4L139.4,366.5z"/>
			<linearGradient id="XMLID_21_" gradientUnits="userSpaceOnUse" x1="112.3045" y1="380.6472" x2="130.6729" y2="362.2787">
				<stop  offset="0" style="stop-color:#FFFFFF;stop-opacity:0"/>
				<stop  offset="1" style="stop-color:#90A4AE"/>
			</linearGradient>
			<path id="XMLID_4038_" class="st51" d="M139.4,366.5c0,0-16.6,0.9-16.6-9.4L139.4,366.5z"/>
		</g>
		<circle id="XMLID_2196_" class="st47" cx="178.9" cy="166.4" r="7.8"/>
		<g id="XMLID_4550_">
			<g id="XMLID_4567_">
				<path id="XMLID_4548_" class="st52" d="M371.7,281.2c-4.2,2.4-11.1,2.4-15.3,0s-4.2-6.4,0-8.8c4.2-2.4,11.1-2.4,15.3,0
					C375.9,274.8,375.9,278.7,371.7,281.2z"/>
				<polygon id="XMLID_4547_" class="st52" points="353.2,276.8 351,263.5 377.1,263.5 374.8,276.8 				"/>
				<path id="XMLID_4546_" class="st53" d="M373.5,257.1c-5.3-3-13.8-3-19.1,0c-2.6,1.5-3.9,3.5-3.9,5.5l0,0v1.8c0,2,1.3,4,3.9,5.5
					c5.3,3,13.8,3,19.1,0c2.6-1.5,3.9-3.5,3.9-5.5v-1.8C377.5,260.6,376.1,258.6,373.5,257.1z"/>
				<path id="XMLID_4545_" class="st52" d="M372.5,267.4c-4.6,2.6-12.2,2.4-17-0.3c-4.7-2.7-4.8-7-0.2-9.6c4.6-2.6,12.2-2.4,17,0.3
					C377.1,260.6,377.2,264.9,372.5,267.4z"/>
				<path id="XMLID_4544_" class="st54" d="M372.4,260.8c-4.7-2.7-12.3-2.9-17-0.3c-1.6,0.9-2.7,2-3.1,3.2c0.5,1.2,1.6,2.4,3.3,3.4
					c4.7,2.7,12.3,2.9,17,0.3c1.6-0.9,2.7-2,3.1-3.2C375.2,263,374.1,261.8,372.4,260.8z"/>
			</g>
			<g id="XMLID_4551_">
				<circle id="XMLID_4543_" class="st55" cx="364" cy="247.5" r="17.6"/>
				<linearGradient id="XMLID_22_" gradientUnits="userSpaceOnUse" x1="357.9953" y1="238.1109" x2="374.6876" y2="264.2378">
					<stop  offset="0" style="stop-color:#FFFFFF;stop-opacity:0"/>
					<stop  offset="0.269" style="stop-color:#BAD8BE;stop-opacity:0.269"/>
					<stop  offset="0.5183" style="stop-color:#82B989;stop-opacity:0.5183"/>
					<stop  offset="0.7309" style="stop-color:#59A263;stop-opacity:0.7309"/>
					<stop  offset="0.8984" style="stop-color:#40944C;stop-opacity:0.8984"/>
					<stop  offset="1" style="stop-color:#378F43"/>
				</linearGradient>
				<circle id="XMLID_2199_" class="st56" cx="364" cy="247.5" r="17.6"/>
				<path id="XMLID_4542_" class="st57" d="M348.6,255c0.4-0.6,1.2-0.8,1.8-0.4c0.6,0.4,0.8,1.2,0.4,1.8c-0.4,0.6-2.8,2-2.8,2
					S348.2,255.6,348.6,255z"/>
				<path id="XMLID_4465_" class="st57" d="M349.3,251.5c0.7,0.3,0.9,1.1,0.6,1.8c-0.3,0.7-1.1,0.9-1.8,0.6
					c-0.7-0.3-2.3-2.6-2.3-2.6S348.7,251.1,349.3,251.5z"/>
				<path id="XMLID_4464_" class="st57" d="M367.5,245.8c-0.3,0.6-1.1,0.9-1.8,0.6c-0.6-0.3-0.9-1.1-0.6-1.8
					c0.3-0.6,2.6-2.3,2.6-2.3S367.8,245.1,367.5,245.8z"/>
				<path id="XMLID_4463_" class="st57" d="M379.9,246.9c-0.7-0.1-1.2-0.8-1-1.6c0.1-0.7,0.8-1.2,1.6-1c0.7,0.1,2.9,1.9,2.9,1.9
					S380.6,247,379.9,246.9z"/>
				<path id="XMLID_4462_" class="st57" d="M380.4,242.8c-0.2,0.4-0.7,0.5-1.1,0.3c-0.4-0.2-0.5-0.7-0.3-1.1
					c0.2-0.4,1.7-1.3,1.7-1.3S380.6,242.4,380.4,242.8z"/>
				<path id="XMLID_4461_" class="st57" d="M364.3,244.2c0.1,0.4-0.2,0.9-0.7,1c-0.4,0.1-0.9-0.2-1-0.7c-0.1-0.4,0.5-2.1,0.5-2.1
					S364.2,243.7,364.3,244.2z"/>
				<path id="XMLID_4460_" class="st57" d="M369,259.3c-0.1-0.7,0.4-1.4,1.1-1.5c0.7-0.1,1.4,0.4,1.5,1.1c0.1,0.7-0.9,3.4-0.9,3.4
					S369.1,260,369,259.3z"/>
				<path id="XMLID_4459_" class="st57" d="M372.5,258.8c-0.3-0.3-0.3-0.9,0-1.2c0.3-0.3,0.9-0.3,1.2,0c0.3,0.3,0.8,2,0.8,2
					S372.9,259.2,372.5,258.8z"/>
				<circle id="XMLID_4457_" class="st58" cx="354.9" cy="245.1" r="1.2"/>
				<circle id="XMLID_4456_" class="st58" cx="377.5" cy="251.2" r="1.2"/>
				<circle id="XMLID_4455_" class="st58" cx="349.5" cy="238.1" r="1.2"/>
				<circle id="XMLID_4454_" class="st58" cx="365.4" cy="253.2" r="1.9"/>
				<circle id="XMLID_4453_" class="st58" cx="355.6" cy="262.9" r="1.9"/>
				<circle id="XMLID_4374_" class="st58" cx="372.8" cy="240.2" r="1.7"/>
			</g>
		</g>
		<g id="XMLID_68_">
			<path id="XMLID_1077_" class="st59" d="M289.5,217.7c-5.7,0-11.4-3.2-16.2-9c-10.5-12.9-14.2-35.2-8.3-50.8
				c3.5-9.2,9.8-14.5,17.2-14.5c5.7,0,11.4,3.2,16.2,9c10.5,12.9,14.2,35.2,8.3,50.8C303.3,212.4,297,217.7,289.5,217.7z"/>
		</g>
		<path id="XMLID_2_" class="st17" d="M303.4,201.9c-5.4,14.3-17.6,16.3-27.3,4.5c-9.7-11.8-13.1-32.9-7.7-47.2
			c5.4-14.3,17.6-16.3,27.3-4.5C305.3,166.5,308.8,187.7,303.4,201.9z"/>
		<g id="XMLID_3_">
			<path id="XMLID_66_" class="st60" d="M295.7,179.2c-0.7,5.9-5.1,7.8-9.9,4.3c-4.8-3.6-8.1-11.3-7.4-17.2c0.7-5.9,5.1-7.8,9.9-4.3
				C293.1,165.6,296.4,173.3,295.7,179.2z"/>
			<path id="XMLID_65_" class="st60" d="M285.8,183.5c-5.9-4.4-11.3-2-12.2,5.3l21.3,15.8C295.7,197.3,291.6,187.9,285.8,183.5z"/>
		</g>
		<path id="XMLID_1135_" class="st61" d="M379.6,153.7l-57.4-33.1c-0.9-0.5-1.4-1.4-1.4-2.5V59.1c0-2.2,2.4-3.6,4.3-2.5l56.2,32.4
			c1.7,1,2.7,2.7,2.7,4.6v57.5C383.8,153.4,381.5,154.8,379.6,153.7z"/>
		<path id="XMLID_1142_" class="st62" d="M298.9,97.9l-38.6-22.3c-0.6-0.3-1-1-1-1.7V34.4c0-1.5,1.6-2.4,2.9-1.7l37.7,21.8
			c1.1,0.6,1.8,1.8,1.8,3.1v38.6C301.7,97.7,300.1,98.6,298.9,97.9z"/>
		<g id="XMLID_3980_">
			<g id="XMLID_3984_">
				<circle id="XMLID_3986_" class="st63" cx="320" cy="156.8" r="21.9"/>
				<polygon id="XMLID_3985_" class="st63" points="306,166.5 298.1,178.3 313.8,174.3 				"/>
			</g>
		</g>
		<g id="XMLID_1069_">
			<path id="XMLID_1074_" class="st20" d="M342.5,88.7l-13.7-7.9c-0.2-0.1-0.3-0.3-0.3-0.6v-9c0-0.5,0.6-0.8,1-0.6l13.4,7.7
				c0.4,0.2,0.6,0.6,0.6,1.1v8.7C343.5,88.7,343,89,342.5,88.7z"/>
			<path id="XMLID_1140_" class="st20" d="M339.2,119.5l-10.5-6.1c-0.2-0.1-0.3-0.3-0.3-0.5v-10.8c0-0.4,0.4-0.7,0.8-0.5l10.3,5.9
				c0.3,0.2,0.5,0.5,0.5,0.8v10.5C340,119.5,339.5,119.8,339.2,119.5z"/>
			<line id="XMLID_1161_" class="st64" x1="328.5" y1="87.1" x2="376.1" y2="114.6"/>
			<line id="XMLID_1163_" class="st64" x1="328.5" y1="90.7" x2="376.1" y2="118.1"/>
			<line id="XMLID_1164_" class="st64" x1="328.5" y1="94.2" x2="376.1" y2="121.7"/>
			<line id="XMLID_1165_" class="st64" x1="328.5" y1="97.7" x2="376.1" y2="125.2"/>
			<line id="XMLID_1173_" class="st64" x1="348.7" y1="84.5" x2="376.1" y2="100.3"/>
			<line id="XMLID_1172_" class="st64" x1="348.7" y1="88" x2="376.1" y2="103.9"/>
			<line id="XMLID_1171_" class="st64" x1="348.7" y1="91.6" x2="376.1" y2="107.4"/>
			<line id="XMLID_1170_" class="st64" x1="328.5" y1="83.4" x2="376.1" y2="110.9"/>
			<line id="XMLID_1166_" class="st64" x1="343.5" y1="109.9" x2="376.1" y2="128.7"/>
			<line id="XMLID_1167_" class="st64" x1="343.5" y1="113.4" x2="376.1" y2="132.2"/>
			<line id="XMLID_1168_" class="st64" x1="343.5" y1="117" x2="376.1" y2="135.8"/>
			<line id="XMLID_1169_" class="st64" x1="343.5" y1="120.5" x2="376.1" y2="139.3"/>
		</g>
		<g id="XMLID_1176_">
			<g id="XMLID_1217_">
				<path id="XMLID_1219_" class="st65" d="M285.5,80.6c-1.7,0-3.5-0.6-5.4-1.6c-6.4-3.7-11.6-12.7-11.6-20c0-3.8,1.3-6.6,3.7-8
					c2.4-1.4,5.5-1.1,8.8,0.8c6.4,3.7,11.6,12.7,11.6,20c0,3.8-1.3,6.6-3.7,8C287.8,80.3,286.7,80.6,285.5,80.6z M275.6,52.1
					c-0.9,0-1.7,0.2-2.4,0.6c-1.8,1-2.7,3.3-2.7,6.3c0,6.7,4.7,14.9,10.6,18.3c2.6,1.5,5.1,1.8,6.8,0.8c1.8-1,2.7-3.3,2.7-6.3
					c0-6.7-4.7-14.9-10.6-18.3C278.4,52.5,276.9,52.1,275.6,52.1z"/>
				<polygon id="XMLID_1218_" class="st65" points="277.7,70.8 277.7,56.6 286,68.5 				"/>
			</g>
		</g>
		<g id="XMLID_1177_">
			<path id="XMLID_1141_" class="st61" d="M250.5,140.4l-44.1-25.4c-0.7-0.4-1.1-1.1-1.1-1.9V67.8c0-1.7,1.8-2.7,3.3-1.9l43.1,24.9
				c1.3,0.7,2,2.1,2,3.5v44.1C253.7,140.2,251.9,141.2,250.5,140.4z"/>
			<g id="XMLID_1174_">
				<path id="XMLID_1182_" class="st60" d="M229.6,116l-6-10.4l-11.8,6.8c-0.7,0.4-1.6,0.2-2-0.5c-0.4-0.7-0.2-1.6,0.5-2l14.4-8.3
					l6,10.4l15.1-8.7c0.7-0.4,1.6-0.2,2,0.5c0.4,0.7,0.2,1.6-0.5,2L229.6,116z"/>
				<path id="XMLID_1183_" class="st60" d="M248,114.1c-0.8,0-1.5-0.7-1.5-1.5v-7.6l-6-3.4c-0.7-0.4-1-1.3-0.5-2
					c0.4-0.7,1.3-1,2-0.5l7.5,4.3v9.3C249.5,113.5,248.9,114.1,248,114.1z"/>
			</g>
			<line id="XMLID_1181_" class="st66" x1="211.4" y1="78" x2="221.5" y2="83.8"/>
			<line id="XMLID_1184_" class="st66" x1="227.4" y1="87" x2="231.1" y2="89.2"/>
		</g>
	</g>
</g>
<g id="designed_by_freepik">
</g>
</svg>
